ffmpeg version 4.4.2-0ubuntu0.22.04.1 Copyright (c) 2000-2021 the FFmpeg developers
  built with gcc 11 (Ubuntu 11.2.0-19ubuntu1)
  configuration: --prefix=/usr --extra-version=0ubuntu0.22.04.1 --toolchain=hardened --libdir=/usr/lib/x86_64-linux-gnu --incdir=/usr/include/x86_64-linux-gnu --arch=amd64 --enable-gpl --disable-stripping --enable-gnutls --enable-ladspa --enable-libaom --enable-libass --enable-libbluray --enable-libbs2b --enable-libcaca --enable-libcdio --enable-libcodec2 --enable-libdav1d --enable-libflite --enable-libfontconfig --enable-libfreetype --enable-libfribidi --enable-libgme --enable-libgsm --enable-libjack --enable-libmp3lame --enable-libmysofa --enable-libopenjpeg --enable-libopenmpt --enable-libopus --enable-libpulse --enable-librabbitmq --enable-librubberband --enable-libshine --enable-libsnappy --enable-libsoxr --enable-libspeex --enable-libsrt --enable-libssh --enable-libtheora --enable-libtwolame --enable-libvidstab --enable-libvorbis --enable-libvpx --enable-libwebp --enable-libx265 --enable-libxml2 --enable-libxvid --enable-libzimg --enable-libzmq --enable-libzvbi --enable-lv2 --enable-omx --enable-openal --enable-opencl --enable-opengl --enable-sdl2 --enable-pocketsphinx --enable-librsvg --enable-libmfx --enable-libdc1394 --enable-libdrm --enable-libiec61883 --enable-chromaprint --enable-frei0r --enable-libx264 --enable-shared
  libavutil      56. 70.100 / 56. 70.100
  libavcodec     58.134.100 / 58.134.100
  libavformat    58. 76.100 / 58. 76.100
  libavdevice    58. 13.100 / 58. 13.100
  libavfilter     7.110.100 /  7.110.100
  libswscale      5.  9.100 /  5.  9.100
  libswresample   3.  9.100 /  3.  9.100
  libpostproc    55.  9.100 / 55.  9.100
Input #0, flv, from '/storage/32426326/20250612/32426326-20250612-123510-860.flv':
  Metadata:
    cdn_ip          : 156.59.188.242
    displayWidth    : 2560
    7.1             : false
    displayHeight   : 1440
    fps             : 60
    4.0             : false
    fileSize        : 0
    3.1             : false
    2.1             : false
    audiochannels   : 2
    4.1             : false
    5.1             : false
    encoder         : obs-output module (libobs version 31.0.2)
    Title           : 技术主播没有GG
    Artist          : 蓝音BuBuLine (32426326)
    Comment         : mikufans直播间 32426326 的直播录像
                    : 主播名: 蓝音BuBuLine
                    : 直播标题: 技术主播没有GG
                    : 直播分区: 单机游戏·主机游戏
                    : 录制时间: 2025-06-12T12:35:10.8724857+00:00
                    : 直播服务器:
                    : d1--ov-gotcha07.bilivideo.com [156.59.188.242]
                    : 
                    : 使用 mikufans录播姬 录制 https://rec.danmuji.org
                    : 录播姬版本: 2.11.0
    RecordedBy      : BililiveRecorder mikufans录播姬
    RecordedFrom    : d1--ov-gotcha07.bilivideo.com
    StreamServers   : d1--ov-gotcha07.bilivideo.com [156.59.188.242]
    RecorderVersion : 2.11.0+Branch.tags-v2.11.0.Sha.d32ebb97483b1ae77acfc6dbcfef17bd64913ccd
    StartTime       : Thu, 12 Jun 2025 12:35:10 +0000
    RoomId          : 32426326
    ShortId         : 0
    Name            : 蓝音BuBuLine
    StreamTitle     : 技术主播没有GG
    AreaNameParent  : 单机游戏
    AreaNameChild   : 主机游戏
  Duration: 09:19:33.48, start: 0.000000, bitrate: 8791 kb/s
  Stream #0:0: Video: h264 (High), yuv420p(tv, bt709, progressive), 2560x1440 [SAR 1:1 DAR 16:9], 10240 kb/s, 60 fps, 60 tbr, 1k tbn, 120 tbc
  Stream #0:1: Audio: aac (LC), 48000 Hz, stereo, fltp, 196 kb/s
Stream mapping:
  Stream #0:0 -> #0:0 (h264 (native) -> png (native))
Press [q] to stop, [?] for help
Output #0, image2, to '/storage/32426326/20250612/32426326-20250612-123510-860.all.thumb.png':
  Metadata:
    cdn_ip          : 156.59.188.242
    displayWidth    : 2560
    7.1             : false
    displayHeight   : 1440
    fps             : 60
    4.0             : false
    fileSize        : 0
    3.1             : false
    2.1             : false
    audiochannels   : 2
    4.1             : false
    5.1             : false
    AreaNameChild   : 主机游戏
    Title           : 技术主播没有GG
    Artist          : 蓝音BuBuLine (32426326)
    Comment         : mikufans直播间 32426326 的直播录像
                    : 主播名: 蓝音BuBuLine
                    : 直播标题: 技术主播没有GG
                    : 直播分区: 单机游戏·主机游戏
                    : 录制时间: 2025-06-12T12:35:10.8724857+00:00
                    : 直播服务器:
                    : d1--ov-gotcha07.bilivideo.com [156.59.188.242]
                    : 
                    : 使用 mikufans录播姬 录制 https://rec.danmuji.org
                    : 录播姬版本: 2.11.0
    RecordedBy      : BililiveRecorder mikufans录播姬
    RecordedFrom    : d1--ov-gotcha07.bilivideo.com
    StreamServers   : d1--ov-gotcha07.bilivideo.com [156.59.188.242]
    RecorderVersion : 2.11.0+Branch.tags-v2.11.0.Sha.d32ebb97483b1ae77acfc6dbcfef17bd64913ccd
    StartTime       : Thu, 12 Jun 2025 12:35:10 +0000
    RoomId          : 32426326
    ShortId         : 0
    Name            : 蓝音BuBuLine
    StreamTitle     : 技术主播没有GG
    AreaNameParent  : 单机游戏
    encoder         : Lavf58.76.100
  Stream #0:0: Video: png, rgb24(pc, gbr/bt709/bt709, progressive), 2560x1440 [SAR 1:1 DAR 16:9], q=2-31, 200 kb/s, 60 fps, 60 tbn
    Metadata:
      encoder         : Lavc58.134.100 png
frame=    1 fps=0.0 q=0.0 size=N/A time=00:00:00.00 bitrate=N/A speed=   0x    frame=    1 fps=0.0 q=-0.0 Lsize=N/A time=00:00:00.01 bitrate=N/A speed=0.0293x    
video:3347kB audio:0kB subtitle:0kB other streams:0kB global headers:0kB muxing overhead: unknown
ffmpeg version 4.4.2-0ubuntu0.22.04.1 Copyright (c) 2000-2021 the FFmpeg developers
  built with gcc 11 (Ubuntu 11.2.0-19ubuntu1)
  configuration: --prefix=/usr --extra-version=0ubuntu0.22.04.1 --toolchain=hardened --libdir=/usr/lib/x86_64-linux-gnu --incdir=/usr/include/x86_64-linux-gnu --arch=amd64 --enable-gpl --disable-stripping --enable-gnutls --enable-ladspa --enable-libaom --enable-libass --enable-libbluray --enable-libbs2b --enable-libcaca --enable-libcdio --enable-libcodec2 --enable-libdav1d --enable-libflite --enable-libfontconfig --enable-libfreetype --enable-libfribidi --enable-libgme --enable-libgsm --enable-libjack --enable-libmp3lame --enable-libmysofa --enable-libopenjpeg --enable-libopenmpt --enable-libopus --enable-libpulse --enable-librabbitmq --enable-librubberband --enable-libshine --enable-libsnappy --enable-libsoxr --enable-libspeex --enable-libsrt --enable-libssh --enable-libtheora --enable-libtwolame --enable-libvidstab --enable-libvorbis --enable-libvpx --enable-libwebp --enable-libx265 --enable-libxml2 --enable-libxvid --enable-libzimg --enable-libzmq --enable-libzvbi --enable-lv2 --enable-omx --enable-openal --enable-opencl --enable-opengl --enable-sdl2 --enable-pocketsphinx --enable-librsvg --enable-libmfx --enable-libdc1394 --enable-libdrm --enable-libiec61883 --enable-chromaprint --enable-frei0r --enable-libx264 --enable-shared
  libavutil      56. 70.100 / 56. 70.100
  libavcodec     58.134.100 / 58.134.100
  libavformat    58. 76.100 / 58. 76.100
  libavdevice    58. 13.100 / 58. 13.100
  libavfilter     7.110.100 /  7.110.100
  libswscale      5.  9.100 /  5.  9.100
  libswresample   3.  9.100 /  3.  9.100
  libpostproc    55.  9.100 / 55.  9.100
[flv @ 0x55e8c3464fc0] Auto-inserting h264_mp4toannexb bitstream filter
Input #0, concat, from '/storage/32426326/20250612/32426326-20250612-123510-860.all.concat.txt':
  Duration: N/A, start: 0.000000, bitrate: 10436 kb/s
  Stream #0:0: Video: h264 (High), yuv420p(tv, bt709, progressive), 2560x1440 [SAR 1:1 DAR 16:9], 10240 kb/s, 60 fps, 60 tbr, 1k tbn, 120 tbc
  Stream #0:1: Audio: aac (LC), 48000 Hz, stereo, fltp, 196 kb/s
Output #0, flv, to '/storage/32426326/20250612/32426326-20250612-123510-860.all.flv':
  Metadata:
    encoder         : Lavf58.76.100
  Stream #0:0: Video: h264 (High) ([7][0][0][0] / 0x0007), yuv420p(tv, bt709, progressive), 2560x1440 [SAR 1:1 DAR 16:9], q=2-31, 10240 kb/s, 60 fps, 60 tbr, 1k tbn, 1k tbc
  Stream #0:1: Audio: aac (LC) ([10][0][0][0] / 0x000A), 48000 Hz, stereo, fltp, 196 kb/s
Stream mapping:
  Stream #0:0 -> #0:0 (copy)
  Stream #0:1 -> #0:1 (copy)
Press [q] to stop, [?] for help
frame=    1 fps=0.0 q=-1.0 size=       0kB time=00:00:00.00 bitrate=1125.3kbits/s speed=N/A    frame= 5019 fps=0.0 q=-1.0 size=   41472kB time=00:01:29.85 bitrate=3781.1kbits/s speed= 180x    frame= 7333 fps=7331 q=-1.0 size=   83200kB time=00:02:10.49 bitrate=5222.9kbits/s speed= 130x    frame= 9319 fps=6211 q=-1.0 size=  126720kB time=00:02:46.72 bitrate=6226.3kbits/s speed= 111x    frame=11266 fps=5631 q=-1.0 size=  169472kB time=00:03:24.60 bitrate=6785.4kbits/s speed= 102x    frame=13509 fps=5402 q=-1.0 size=  215296kB time=00:04:09.67 bitrate=7064.1kbits/s speed=99.8x    frame=15486 fps=5159 q=-1.0 size=  258304kB time=00:04:45.55 bitrate=7410.2kbits/s speed=95.1x    frame=17191 fps=4909 q=-1.0 size=  298752kB time=00:05:21.02 bitrate=7623.6kbits/s speed=91.7x    frame=19025 fps=4754 q=-1.0 size=  341248kB time=00:05:57.49 bitrate=7819.7kbits/s speed=89.3x    frame=21160 fps=4699 q=-1.0 size=  384512kB time=00:06:36.65 bitrate=7941.2kbits/s speed=88.1x    frame=23197 fps=4635 q=-1.0 size=  421632kB time=00:07:12.54 bitrate=7985.4kbits/s speed=86.4x    frame=25204 fps=4579 q=-1.0 size=  464896kB time=00:07:48.93 bitrate=8121.4kbits/s speed=85.2x    frame=27046 fps=4504 q=-1.0 size=  507136kB time=00:08:24.90 bitrate=8228.2kbits/s speed=84.1x    frame=28948 fps=4450 q=-1.0 size=  549376kB time=00:09:01.07 bitrate=8317.7kbits/s speed=83.2x    frame=30888 fps=4409 q=-1.0 size=  591360kB time=00:09:36.34 bitrate=8405.4kbits/s speed=82.3x    frame=32733 fps=4361 q=-1.0 size=  633856kB time=00:10:13.28 bitrate=8466.8kbits/s speed=81.7x    frame=34638 fps=4326 q=-1.0 size=  676352kB time=00:10:49.31 bitrate=8533.1kbits/s speed=81.1x    frame=36479 fps=4288 q=-1.0 size=  719104kB time=00:11:26.85 bitrate=8576.6kbits/s speed=80.7x    frame=38304 fps=4252 q=-1.0 size=  760832kB time=00:12:02.73 bitrate=8623.8kbits/s speed=80.2x    frame=40144 fps=4222 q=-1.0 size=  802048kB time=00:12:37.96 bitrate=8668.5kbits/s speed=79.7x    frame=41981 fps=4195 q=-1.0 size=  843776kB time=00:13:13.49 bitrate=8711.1kbits/s speed=79.3x    frame=43749 fps=4163 q=-1.0 size=  882688kB time=00:13:46.34 bitrate=8750.5kbits/s speed=78.6x    frame=45521 fps=4135 q=-1.0 size=  923648kB time=00:14:22.36 bitrate=8774.2kbits/s speed=78.3x    frame=47305 fps=4110 q=-1.0 size=  963840kB time=00:14:56.81 bitrate=8804.2kbits/s speed=77.9x    frame=49312 fps=4106 q=-1.0 size= 1003008kB time=00:15:32.72 bitrate=8809.3kbits/s speed=77.7x    frame=51062 fps=4082 q=-1.0 size= 1046528kB time=00:16:10.65 bitrate=8832.3kbits/s speed=77.6x    frame=53139 fps=4084 q=-1.0 size= 1086464kB time=00:16:49.10 bitrate=8820.0kbits/s speed=77.6x    frame=54944 fps=4067 q=-1.0 size= 1127168kB time=00:17:24.22 bitrate=8842.7kbits/s speed=77.3x    frame=56797 fps=4054 q=-1.0 size= 1168640kB time=00:17:59.65 bitrate=8867.2kbits/s speed=77.1x    frame=58534 fps=4034 q=-1.0 size= 1207040kB time=00:18:32.56 bitrate=8887.6kbits/s speed=76.7x    frame=60498 fps=4030 q=-1.0 size= 1248000kB time=00:19:06.29 bitrate=8918.8kbits/s speed=76.4x    frame=62402 fps=4023 q=-1.0 size= 1289984kB time=00:19:42.21 bitrate=8938.8kbits/s speed=76.2x    frame=64147 fps=4006 q=-1.0 size= 1328640kB time=00:20:14.96 bitrate=8958.4kbits/s speed=75.9x    frame=65995 fps=3996 q=-1.0 size= 1369088kB time=00:20:48.27 bitrate=8984.9kbits/s speed=75.6x    frame=67817 fps=3986 q=-1.0 size= 1409024kB time=00:21:22.45 bitrate=9000.5kbits/s speed=75.4x    frame=69666 fps=3978 q=-1.0 size= 1448960kB time=00:21:55.63 bitrate=9022.2kbits/s speed=75.1x    frame=71685 fps=3979 q=-1.0 size= 1491456kB time=00:22:30.41 bitrate=9047.6kbits/s speed=  75x    frame=73508 fps=3970 q=-1.0 size= 1530880kB time=00:23:02.52 bitrate=9071.0kbits/s speed=74.7x    frame=75456 fps=3968 q=-1.0 size= 1572864kB time=00:23:37.25 bitrate=9091.4kbits/s speed=74.5x    frame=77344 fps=3963 q=-1.0 size= 1615872kB time=00:24:14.49 bitrate=9100.9kbits/s speed=74.5x    frame=79418 fps=3968 q=-1.0 size= 1656832kB time=00:24:52.84 bitrate=9091.9kbits/s speed=74.6x    frame=81591 fps=3977 q=-1.0 size= 1701376kB time=00:25:35.21 bitrate=9078.6kbits/s speed=74.8x    frame=83407 fps=3969 q=-1.0 size= 1741312kB time=00:26:09.62 bitrate=9088.1kbits/s speed=74.7x    frame=85103 fps=3955 q=-1.0 size= 1781760kB time=00:26:44.35 bitrate=9097.9kbits/s speed=74.6x    frame=86961 fps=3950 q=-1.0 size= 1823232kB time=00:27:20.14 bitrate=9106.5kbits/s speed=74.5x    frame=88695 fps=3939 q=-1.0 size= 1862912kB time=00:27:54.61 bitrate=9113.1kbits/s speed=74.4x    frame=90383 fps=3927 q=-1.0 size= 1903104kB time=00:28:30.11 bitrate=9116.5kbits/s speed=74.3x    frame=92194 fps=3920 q=-1.0 size= 1946112kB time=00:29:07.78 bitrate=9121.6kbits/s speed=74.3x    frame=94277 fps=3925 q=-1.0 size= 1987840kB time=00:29:47.80 bitrate=9108.6kbits/s speed=74.4x    frame=96301 fps=3928 q=-1.0 size= 2031616kB time=00:30:26.68 bitrate=9111.0kbits/s speed=74.5x    frame=98591 fps=3941 q=-1.0 size= 2073856kB time=00:31:09.02 bitrate=9089.8kbits/s speed=74.7x    frame=100305 fps=3931 q=-1.0 size= 2113280kB time=00:31:43.26 bitrate=9095.9kbits/s speed=74.6x    frame=102125 fps=3925 q=-1.0 size= 2154496kB time=00:32:18.72 bitrate=9103.7kbits/s speed=74.5x    frame=104023 fps=3923 q=-1.0 size= 2195200kB time=00:32:52.72 bitrate=9115.9kbits/s speed=74.4x    frame=105865 fps=3918 q=-1.0 size= 2234880kB time=00:33:25.99 bitrate=9126.7kbits/s speed=74.2x    frame=108015 fps=3925 q=-1.0 size= 2276096kB time=00:34:05.90 bitrate=9113.7kbits/s speed=74.3x    frame=109868 fps=3921 q=-1.0 size= 2317312kB time=00:34:46.30 bitrate=9099.1kbits/s speed=74.5x    frame=111689 fps=3916 q=-1.0 size= 2357248kB time=00:35:20.40 bitrate=9107.0kbits/s speed=74.3x    frame=113567 fps=3913 q=-1.0 size= 2397952kB time=00:35:53.75 bitrate=9120.8kbits/s speed=74.2x    frame=115284 fps=3905 q=-1.0 size= 2435328kB time=00:36:25.27 bitrate=9129.4kbits/s speed=  74x    frame=116934 fps=3895 q=-1.0 size= 2472704kB time=00:36:57.28 bitrate=9135.7kbits/s speed=73.9x    frame=118758 fps=3891 q=-1.0 size= 2513664kB time=00:37:32.05 bitrate=9143.6kbits/s speed=73.8x    frame=120371 fps=3880 q=-1.0 size= 2551040kB time=00:38:03.68 bitrate=9151.0kbits/s speed=73.6x    frame=122254 fps=3878 q=-1.0 size= 2592512kB time=00:38:38.84 bitrate=9158.8kbits/s speed=73.6x    frame=124094 fps=3875 q=-1.0 size= 2632704kB time=00:39:12.81 bitrate=9166.5kbits/s speed=73.5x    frame=125863 fps=3870 q=-1.0 size= 2673152kB time=00:39:48.29 bitrate=9169.1kbits/s speed=73.4x    frame=127642 fps=3865 q=-1.0 size= 2714624kB time=00:40:23.29 bitrate=9176.8kbits/s speed=73.4x    frame=129423 fps=3861 q=-1.0 size= 2754560kB time=00:40:56.90 bitrate=9184.5kbits/s speed=73.3x    frame=131390 fps=3862 q=-1.0 size= 2797824kB time=00:41:33.12 bitrate=9193.2kbits/s speed=73.3x    frame=133339 fps=3862 q=-1.0 size= 2841856kB time=00:42:10.94 bitrate=9198.3kbits/s speed=73.3x    frame=135120 fps=3858 q=-1.0 size= 2881792kB time=00:42:45.41 bitrate=9202.3kbits/s speed=73.2x    frame=137137 fps=3860 q=-1.0 size= 2924800kB time=00:43:20.92 bitrate=9212.1kbits/s speed=73.2x    frame=139367 fps=3869 q=-1.0 size= 2968576kB time=00:44:02.03 bitrate=9204.5kbits/s speed=73.3x    frame=141446 fps=3872 q=-1.0 size= 3012096kB time=00:44:44.12 bitrate=9193.0kbits/s speed=73.5x    frame=143689 fps=3881 q=-1.0 size= 3057920kB time=00:45:26.66 bitrate=9187.2kbits/s speed=73.6x    frame=145963 fps=3890 q=-1.0 size= 3098624kB time=00:46:08.78 bitrate=9167.9kbits/s speed=73.8x    frame=147902 fps=3889 q=-1.0 size= 3140864kB time=00:46:43.57 bitrate=9177.6kbits/s speed=73.7x    frame=149764 fps=3887 q=-1.0 size= 3183616kB time=00:47:21.24 bitrate=9179.1kbits/s speed=73.7x    frame=151587 fps=3884 q=-1.0 size= 3223552kB time=00:47:55.36 bitrate=9184.0kbits/s speed=73.7x    frame=153529 fps=3884 q=-1.0 size= 3266560kB time=00:48:32.17 bitrate=9188.9kbits/s speed=73.7x    frame=155524 fps=3885 q=-1.0 size= 3310592kB time=00:49:09.92 bitrate=9193.6kbits/s speed=73.7x    frame=157347 fps=3882 q=-1.0 size= 3351296kB time=00:49:44.28 bitrate=9199.5kbits/s speed=73.6x    frame=159277 fps=3882 q=-1.0 size= 3394304kB time=00:50:20.63 bitrate=9205.4kbits/s speed=73.6x    frame=161138 fps=3880 q=-1.0 size= 3435776kB time=00:50:56.42 bitrate=9208.8kbits/s speed=73.6x    frame=163231 fps=3884 q=-1.0 size= 3481344kB time=00:51:34.53 bitrate=9216.0kbits/s speed=73.6x    frame=165196 fps=3884 q=-1.0 size= 3524608kB time=00:52:10.91 bitrate=9222.1kbits/s speed=73.6x    frame=167055 fps=3882 q=-1.0 size= 3565312kB time=00:52:44.79 bitrate=9228.7kbits/s speed=73.5x    frame=168948 fps=3881 q=-1.0 size= 3607552kB time=00:53:20.48 bitrate=9233.9kbits/s speed=73.5x    frame=170989 fps=3883 q=-1.0 size= 3650560kB time=00:54:01.76 bitrate=9225.0kbits/s speed=73.6x    frame=173009 fps=3885 q=-1.0 size= 3695104kB time=00:54:39.14 bitrate=9231.2kbits/s speed=73.6x    frame=175597 fps=3899 q=-1.0 size= 3738368kB time=00:55:24.18 bitrate=9212.7kbits/s speed=73.8x    frame=177617 fps=3901 q=-1.0 size= 3781632kB time=00:55:59.89 bitrate=9220.3kbits/s speed=73.8x    frame=179510 fps=3900 q=-1.0 size= 3822848kB time=00:56:34.79 bitrate=9224.9kbits/s speed=73.7x    frame=181692 fps=3904 q=-1.0 size= 3866112kB time=00:57:14.94 bitrate=9220.3kbits/s speed=73.8x    frame=183903 fps=3910 q=-1.0 size= 3909632kB time=00:57:57.86 bitrate=9209.0kbits/s speed=73.9x    frame=185874 fps=3910 q=-1.0 size= 3952128kB time=00:58:33.92 bitrate=9213.6kbits/s speed=73.9x    frame=187751 fps=3909 q=-1.0 size= 3994112kB time=00:59:09.81 bitrate=9217.3kbits/s speed=73.9x    frame=189586 fps=3906 q=-1.0 size= 4033536kB time=00:59:42.44 bitrate=9223.5kbits/s speed=73.8x    frame=191454 fps=3904 q=-1.0 size= 4075776kB time=01:00:18.50 bitrate=9227.2kbits/s speed=73.8x    frame=193219 fps=3901 q=-1.0 size= 4118016kB time=01:00:55.28 bitrate=9229.0kbits/s speed=73.8x    frame=195008 fps=3897 q=-1.0 size= 4159232kB time=01:01:29.98 bitrate=9233.8kbits/s speed=73.7x    frame=196954 fps=3897 q=-1.0 size= 4202240kB time=01:02:06.25 bitrate=9238.4kbits/s speed=73.7x    frame=198863 fps=3896 q=-1.0 size= 4243968kB time=01:02:41.57 bitrate=9242.6kbits/s speed=73.7x    frame=200647 fps=3893 q=-1.0 size= 4286720kB time=01:03:18.28 bitrate=9245.4kbits/s speed=73.7x    frame=202541 fps=3892 q=-1.0 size= 4329984kB time=01:03:55.31 bitrate=9248.6kbits/s speed=73.7x    frame=204234 fps=3887 q=-1.0 size= 4370176kB time=01:04:30.34 bitrate=9250.0kbits/s speed=73.7x    frame=206128 fps=3886 q=-1.0 size= 4413440kB time=01:05:08.08 bitrate=9251.3kbits/s speed=73.7x    frame=208094 fps=3887 q=-1.0 size= 4456448kB time=01:05:44.66 bitrate=9254.8kbits/s speed=73.7x    frame=210016 fps=3886 q=-1.0 size= 4497920kB time=01:06:19.16 bitrate=9260.0kbits/s speed=73.6x    frame=212082 fps=3888 q=-1.0 size= 4540928kB time=01:06:56.18 bitrate=9262.3kbits/s speed=73.6x    frame=214169 fps=3891 q=-1.0 size= 4585728kB time=01:07:38.11 bitrate=9257.1kbits/s speed=73.7x    frame=216266 fps=3894 q=-1.0 size= 4623104kB time=01:08:19.40 bitrate=9238.5kbits/s speed=73.8x    frame=218162 fps=3893 q=-1.0 size= 4664576kB time=01:08:55.04 bitrate=9241.1kbits/s speed=73.8x    frame=220006 fps=3891 q=-1.0 size= 4705024kB time=01:09:29.73 bitrate=9243.6kbits/s speed=73.7x    frame=221741 fps=3887 q=-1.0 size= 4744960kB time=01:10:04.63 bitrate=9244.7kbits/s speed=73.7x    frame=223604 fps=3886 q=-1.0 size= 4787968kB time=01:10:42.36 bitrate=9245.6kbits/s speed=73.7x    frame=225551 fps=3886 q=-1.0 size= 4830976kB time=01:11:18.54 bitrate=9249.7kbits/s speed=73.7x    frame=227355 fps=3883 q=-1.0 size= 4870912kB time=01:11:52.35 bitrate=9253.1kbits/s speed=73.7x    frame=229320 fps=3884 q=-1.0 size= 4914688kB time=01:12:29.42 bitrate=9256.7kbits/s speed=73.7x    frame=231230 fps=3883 q=-1.0 size= 4957696kB time=01:13:06.15 bitrate=9259.5kbits/s speed=73.7x    frame=233135 fps=3883 q=-1.0 size= 4999680kB time=01:13:41.83 bitrate=9262.5kbits/s speed=73.6x    frame=234937 fps=3880 q=-1.0 size= 5042176kB time=01:14:18.53 bitrate=9264.4kbits/s speed=73.6x    frame=236709 fps=3877 q=-1.0 size= 5083904kB time=01:14:54.20 bitrate=9266.9kbits/s speed=73.6x    frame=238583 fps=3876 q=-1.0 size= 5127168kB time=01:15:31.74 bitrate=9268.3kbits/s speed=73.6x    frame=240676 fps=3879 q=-1.0 size= 5170944kB time=01:16:12.29 bitrate=9264.6kbits/s speed=73.7x    frame=242894 fps=3883 q=-1.0 size= 5212416kB time=01:16:53.86 bitrate=9254.7kbits/s speed=73.8x    frame=244695 fps=3881 q=-1.0 size= 5252096kB time=01:17:27.33 bitrate=9258.0kbits/s speed=73.7x    frame=246619 fps=3881 q=-1.0 size= 5293568kB time=01:18:01.95 bitrate=9262.1kbits/s speed=73.7x    frame=248520 fps=3880 q=-1.0 size= 5335296kB time=01:18:37.41 bitrate=9265.0kbits/s speed=73.7x    frame=250309 fps=3878 q=-1.0 size= 5374976kB time=01:19:11.03 bitrate=9267.8kbits/s speed=73.6x    frame=252138 fps=3876 q=-1.0 size= 5414656kB time=01:19:44.08 bitrate=9271.7kbits/s speed=73.5x    frame=254029 fps=3875 q=-1.0 size= 5456896kB time=01:20:20.18 bitrate=9274.1kbits/s speed=73.5x    frame=255726 fps=3872 q=-1.0 size= 5496576kB time=01:20:53.58 bitrate=9277.3kbits/s speed=73.5x    frame=257469 fps=3869 q=-1.0 size= 5538560kB time=01:21:29.65 bitrate=9279.2kbits/s speed=73.5x    frame=259241 fps=3866 q=-1.0 size= 5578752kB time=01:22:03.80 bitrate=9281.7kbits/s speed=73.4x    frame=261001 fps=3864 q=-1.0 size= 5620992kB time=01:22:40.05 bitrate=9283.6kbits/s speed=73.4x    frame=262659 fps=3860 q=-1.0 size= 5661952kB time=01:23:15.43 bitrate=9285.0kbits/s speed=73.4x    frame=264550 fps=3859 q=-1.0 size= 5703168kB time=01:23:49.74 bitrate=9288.8kbits/s speed=73.4x    frame=266402 fps=3858 q=-1.0 size= 5745408kB time=01:24:25.76 bitrate=9291.1kbits/s speed=73.4x    frame=268180 fps=3856 q=-1.0 size= 5784832kB time=01:24:59.20 bitrate=9293.5kbits/s speed=73.3x    frame=269956 fps=3853 q=-1.0 size= 5824256kB time=01:25:32.16 bitrate=9296.7kbits/s speed=73.3x    frame=272215 fps=3858 q=-1.0 size= 5867008kB time=01:26:12.33 bitrate=9292.2kbits/s speed=73.3x    frame=273964 fps=3856 q=-1.0 size= 5906432kB time=01:26:46.25 bitrate=9293.7kbits/s speed=73.3x    frame=276299 fps=3861 q=-1.0 size= 5947392kB time=01:27:28.01 bitrate=9283.7kbits/s speed=73.3x    frame=278253 fps=3862 q=-1.0 size= 5989376kB time=01:28:03.11 bitrate=9287.1kbits/s speed=73.3x    frame=280082 fps=3860 q=-1.0 size= 6030080kB time=01:28:37.58 bitrate=9289.6kbits/s speed=73.3x    frame=282004 fps=3860 q=-1.0 size= 6072064kB time=01:29:12.59 bitrate=9293.1kbits/s speed=73.3x    frame=283686 fps=3857 q=-1.0 size= 6110208kB time=01:29:45.45 bitrate=9294.5kbits/s speed=73.2x    frame=285569 fps=3856 q=-1.0 size= 6151424kB time=01:30:20.09 bitrate=9297.3kbits/s speed=73.2x    frame=287935 fps=3862 q=-1.0 size= 6194688kB time=01:31:01.47 bitrate=9291.8kbits/s speed=73.3x    frame=290139 fps=3865 q=-1.0 size= 6234624kB time=01:31:42.83 bitrate=9281.4kbits/s speed=73.3x    frame=292031 fps=3865 q=-1.0 size= 6275328kB time=01:32:16.35 bitrate=9285.4kbits/s speed=73.3x    frame=293890 fps=3864 q=-1.0 size= 6317056kB time=01:32:51.98 bitrate=9287.4kbits/s speed=73.3x    frame=295599 fps=3861 q=-1.0 size= 6355712kB time=01:33:24.75 bitrate=9289.6kbits/s speed=73.2x    frame=297499 fps=3861 q=-1.0 size= 6397440kB time=01:34:00.43 bitrate=9291.4kbits/s speed=73.2x    frame=299212 fps=3858 q=-1.0 size= 6437632kB time=01:34:34.95 bitrate=9293.0kbits/s speed=73.2x    frame=300993 fps=3856 q=-1.0 size= 6477824kB time=01:35:08.56 bitrate=9295.9kbits/s speed=73.1x    frame=302850 fps=3855 q=-1.0 size= 6519296kB time=01:35:42.99 bitrate=9299.3kbits/s speed=73.1x    frame=304760 fps=3855 q=-1.0 size= 6560256kB time=01:36:16.63 bitrate=9303.3kbits/s speed=73.1x    frame=306574 fps=3853 q=-1.0 size= 6601728kB time=01:36:51.75 bitrate=9305.5kbits/s speed=  73x    frame=308490 fps=3853 q=-1.0 size= 6645504kB time=01:37:28.80 bitrate=9307.9kbits/s speed=73.1x    frame=310752 fps=3857 q=-1.0 size= 6687488kB time=01:38:06.96 bitrate=9306.0kbits/s speed=73.1x    frame=313160 fps=3863 q=-1.0 size= 6730496kB time=01:38:50.72 bitrate=9296.7kbits/s speed=73.2x    frame=314996 fps=3862 q=-1.0 size= 6771456kB time=01:39:25.83 bitrate=9298.2kbits/s speed=73.1x    frame=316863 fps=3861 q=-1.0 size= 6812160kB time=01:39:59.78 bitrate=9301.2kbits/s speed=73.1x    frame=318826 fps=3862 q=-1.0 size= 6854144kB time=01:40:34.27 bitrate=9305.0kbits/s speed=73.1x    frame=320725 fps=3861 q=-1.0 size= 6894080kB time=01:41:07.29 bitrate=9308.3kbits/s speed=  73x    frame=322935 fps=3864 q=-1.0 size= 6936064kB time=01:41:45.67 bitrate=9306.1kbits/s speed=73.1x    frame=324714 fps=3863 q=-1.0 size= 6978816kB time=01:42:23.19 bitrate=9306.3kbits/s speed=73.1x    frame=326988 fps=3867 q=-1.0 size= 7020544kB time=01:43:03.40 bitrate=9301.1kbits/s speed=73.1x    frame=329317 fps=3871 q=-1.0 size= 7062272kB time=01:43:46.11 bitrate=9292.2kbits/s speed=73.2x    frame=331098 fps=3869 q=-1.0 size= 7101696kB time=01:44:19.64 bitrate=9294.0kbits/s speed=73.2x    frame=333052 fps=3870 q=-1.0 size= 7143424kB time=01:44:53.40 bitrate=9298.4kbits/s speed=73.1x    frame=335026 fps=3870 q=-1.0 size= 7185408kB time=01:45:28.59 bitrate=9301.1kbits/s speed=73.1x    frame=336907 fps=3869 q=-1.0 size= 7226368kB time=01:46:02.62 bitrate=9304.1kbits/s speed=73.1x    frame=339129 fps=3873 q=-1.0 size= 7268608kB time=01:46:42.30 bitrate=9300.5kbits/s speed=73.1x    frame=341062 fps=3873 q=-1.0 size= 7307008kB time=01:47:16.21 bitrate=9300.3kbits/s speed=73.1x    frame=343142 fps=3874 q=-1.0 size= 7348736kB time=01:47:56.26 bitrate=9295.6kbits/s speed=73.1x    frame=345047 fps=3874 q=-1.0 size= 7390464kB time=01:48:31.10 bitrate=9298.4kbits/s speed=73.1x    frame=346657 fps=3870 q=-1.0 size= 7426048kB time=01:49:01.06 bitrate=9300.4kbits/s speed=  73x    frame=348527 fps=3869 q=-1.0 size= 7467008kB time=01:49:35.30 bitrate=9302.9kbits/s speed=  73x    frame=350359 fps=3868 q=-1.0 size= 7508736kB time=01:50:11.14 bitrate=9304.2kbits/s speed=  73x    frame=352179 fps=3867 q=-1.0 size= 7550464kB time=01:50:47.20 bitrate=9305.2kbits/s speed=  73x    frame=354057 fps=3866 q=-1.0 size= 7591680kB time=01:51:21.75 bitrate=9307.6kbits/s speed=  73x    frame=355867 fps=3865 q=-1.0 size= 7632128kB time=01:51:55.83 bitrate=9309.7kbits/s speed=72.9x    frame=358143 fps=3869 q=-1.0 size= 7673856kB time=01:52:36.76 bitrate=9303.9kbits/s speed=  73x    frame=360740 fps=3876 q=-1.0 size= 7716608kB time=01:53:23.15 bitrate=9291.9kbits/s speed=73.1x    frame=362389 fps=3873 q=-1.0 size= 7752448kB time=01:53:53.71 bitrate=9293.3kbits/s speed=  73x    frame=364318 fps=3873 q=-1.0 size= 7794176kB time=01:54:28.45 bitrate=9296.1kbits/s speed=  73x    frame=366156 fps=3872 q=-1.0 size= 7833856kB time=01:55:01.55 bitrate=9298.6kbits/s speed=  73x    frame=368063 fps=3871 q=-1.0 size= 7874560kB time=01:55:35.73 bitrate=9300.9kbits/s speed=72.9x    frame=370166 fps=3873 q=-1.0 size= 7918592kB time=01:56:11.25 bitrate=9305.2kbits/s speed=72.9x    frame=372445 fps=3877 q=-1.0 size= 7962112kB time=01:56:51.49 bitrate=9302.7kbits/s speed=  73x    frame=374731 fps=3880 q=-1.0 size= 8003072kB time=01:57:32.82 bitrate=9295.7kbits/s speed=  73x    frame=376835 fps=3882 q=-1.0 size= 8046592kB time=01:58:08.70 bitrate=9299.0kbits/s speed=  73x    frame=378707 fps=3881 q=-1.0 size= 8086528kB time=01:58:41.44 bitrate=9302.2kbits/s speed=  73x    frame=380735 fps=3882 q=-1.0 size= 8130304kB time=01:59:18.20 bitrate=9304.5kbits/s speed=  73x    frame=382669 fps=3882 q=-1.0 size= 8172032kB time=01:59:53.13 bitrate=9306.8kbits/s speed=  73x    frame=384423 fps=3880 q=-1.0 size= 8210176kB time=02:00:24.41 bitrate=9309.8kbits/s speed=72.9x    frame=386373 fps=3880 q=-1.0 size= 8252416kB time=02:00:59.56 bitrate=9312.4kbits/s speed=72.9x    frame=388347 fps=3880 q=-1.0 size= 8293888kB time=02:01:33.27 bitrate=9315.9kbits/s speed=72.9x    frame=390094 fps=3878 q=-1.0 size= 8332288kB time=02:02:04.76 bitrate=9318.8kbits/s speed=72.8x    frame=392080 fps=3879 q=-1.0 size= 8376064kB time=02:02:41.99 bitrate=9320.4kbits/s speed=72.8x    frame=393766 fps=3876 q=-1.0 size= 8413184kB time=02:03:13.27 bitrate=9322.1kbits/s speed=72.8x    frame=395601 fps=3875 q=-1.0 size= 8453632kB time=02:03:47.28 bitrate=9324.0kbits/s speed=72.8x    frame=397558 fps=3875 q=-1.0 size= 8496128kB time=02:04:22.67 bitrate=9326.4kbits/s speed=72.7x    frame=399238 fps=3873 q=-1.0 size= 8534016kB time=02:04:55.00 bitrate=9327.6kbits/s speed=72.7x    frame=401083 fps=3872 q=-1.0 size= 8576256kB time=02:05:31.06 bitrate=9328.9kbits/s speed=72.7x    frame=403054 fps=3872 q=-1.0 size= 8619776kB time=02:06:07.87 bitrate=9330.7kbits/s speed=72.7x    frame=405053 fps=3873 q=-1.0 size= 8662528kB time=02:06:47.49 bitrate=9328.1kbits/s speed=72.7x    frame=407049 fps=3874 q=-1.0 size= 8706048kB time=02:07:27.57 bitrate=9325.8kbits/s speed=72.8x    frame=409204 fps=3876 q=-1.0 size= 8746240kB time=02:08:05.78 bitrate=9322.3kbits/s speed=72.8x    frame=411105 fps=3875 q=-1.0 size= 8787200kB time=02:08:40.06 bitrate=9324.4kbits/s speed=72.8x    frame=412971 fps=3875 q=-1.0 size= 8830208kB time=02:09:17.78 bitrate=9324.4kbits/s speed=72.8x    frame=414911 fps=3875 q=-1.0 size= 8871936kB time=02:09:52.69 bitrate=9326.5kbits/s speed=72.8x    frame=416886 fps=3875 q=-1.0 size= 8914944kB time=02:10:28.48 bitrate=9328.9kbits/s speed=72.8x    frame=418806 fps=3875 q=-1.0 size= 8956672kB time=02:11:03.42 bitrate=9330.9kbits/s speed=72.8x    frame=420577 fps=3873 q=-1.0 size= 8995584kB time=02:11:36.04 bitrate=9332.8kbits/s speed=72.7x    frame=422485 fps=3873 q=-1.0 size= 9036544kB time=02:12:09.57 bitrate=9335.6kbits/s speed=72.7x    frame=424370 fps=3872 q=-1.0 size= 9076736kB time=02:12:42.88 bitrate=9337.9kbits/s speed=72.7x    frame=425990 fps=3870 q=-1.0 size= 9113344kB time=02:13:14.31 bitrate=9338.7kbits/s speed=72.6x    frame=427823 fps=3869 q=-1.0 size= 9154560kB time=02:13:49.22 bitrate=9340.2kbits/s speed=72.6x    frame=429668 fps=3868 q=-1.0 size= 9193216kB time=02:14:20.21 bitrate=9343.5kbits/s speed=72.6x    frame=431420 fps=3866 q=-1.0 size= 9230592kB time=02:14:51.09 bitrate=9345.7kbits/s speed=72.5x    frame=433316 fps=3866 q=-1.0 size= 9272320kB time=02:15:25.66 bitrate=9348.0kbits/s speed=72.5x    frame=435067 fps=3864 q=-1.0 size= 9309440kB time=02:15:56.03 bitrate=9350.5kbits/s speed=72.4x    frame=436931 fps=3864 q=-1.0 size= 9350912kB time=02:16:31.13 bitrate=9351.9kbits/s speed=72.4x    frame=439020 fps=3865 q=-1.0 size= 9391872kB time=02:17:06.52 bitrate=9352.5kbits/s speed=72.4x    frame=440959 fps=3865 q=-1.0 size= 9430528kB time=02:17:40.44 bitrate=9352.4kbits/s speed=72.4x    frame=443365 fps=3869 q=-1.0 size= 9473792kB time=02:18:26.37 bitrate=9343.3kbits/s speed=72.5x    frame=445291 fps=3869 q=-1.0 size= 9513728kB time=02:18:58.44 bitrate=9346.6kbits/s speed=72.5x    frame=447075 fps=3868 q=-1.0 size= 9551872kB time=02:19:29.36 bitrate=9349.4kbits/s speed=72.4x    frame=448954 fps=3867 q=-1.0 size= 9593856kB time=02:20:05.16 bitrate=9350.5kbits/s speed=72.4x    frame=450706 fps=3866 q=-1.0 size= 9632256kB time=02:20:37.53 bitrate=9351.9kbits/s speed=72.4x    frame=452523 fps=3865 q=-1.0 size= 9671168kB time=02:21:09.57 bitrate=9354.2kbits/s speed=72.3x    frame=454407 fps=3864 q=-1.0 size= 9712640kB time=02:21:44.74 bitrate=9355.5kbits/s speed=72.3x    frame=456107 fps=3862 q=-1.0 size= 9750016kB time=02:22:15.95 bitrate=9357.1kbits/s speed=72.3x    frame=457944 fps=3862 q=-1.0 size= 9790720kB time=02:22:50.12 bitrate=9358.7kbits/s speed=72.3x    frame=459970 fps=3862 q=-1.0 size= 9835008kB time=02:23:26.89 bitrate=9360.9kbits/s speed=72.3x    frame=461653 fps=3860 q=-1.0 size= 9871872kB time=02:23:57.45 bitrate=9362.8kbits/s speed=72.2x    frame=463609 fps=3860 q=-1.0 size= 9915904kB time=02:24:34.86 bitrate=9364.0kbits/s speed=72.2x    frame=465473 fps=3860 q=-1.0 size= 9956608kB time=02:25:08.96 bitrate=9365.6kbits/s speed=72.2x    frame=467337 fps=3859 q=-1.0 size= 9998848kB time=02:25:45.04 bitrate=9366.5kbits/s speed=72.2x    frame=469301 fps=3860 q=-1.0 size=10040832kB time=02:26:20.20 bitrate=9368.2kbits/s speed=72.2x    frame=471067 fps=3858 q=-1.0 size=10078976kB time=02:26:53.20 bitrate=9368.6kbits/s speed=72.2x    frame=473247 fps=3860 q=-1.0 size=10122496kB time=02:27:33.69 bitrate=9366.0kbits/s speed=72.2x    frame=475685 fps=3864 q=-1.0 size=10167552kB time=02:28:16.87 bitrate=9362.0kbits/s speed=72.3x    frame=477684 fps=3865 q=-1.0 size=10209280kB time=02:28:51.72 bitrate=9363.7kbits/s speed=72.3x    frame=479694 fps=3866 q=-1.0 size=10252800kB time=02:29:27.96 bitrate=9365.7kbits/s speed=72.3x    frame=481691 fps=3866 q=-1.0 size=10295552kB time=02:30:03.56 bitrate=9367.5kbits/s speed=72.3x    frame=483569 fps=3866 q=-1.0 size=10335232kB time=02:30:35.38 bitrate=9370.5kbits/s speed=72.2x    frame=485555 fps=3866 q=-1.0 size=10378496kB time=02:31:11.06 bitrate=9372.7kbits/s speed=72.2x    frame=487764 fps=3868 q=-1.0 size=10422016kB time=02:31:53.32 bitrate=9368.4kbits/s speed=72.3x    frame=490219 fps=3872 q=-1.0 size=10466816kB time=02:32:38.04 bitrate=9362.7kbits/s speed=72.3x    frame=492244 fps=3873 q=-1.0 size=10511104kB time=02:33:14.98 bitrate=9364.6kbits/s speed=72.3x    frame=494007 fps=3872 q=-1.0 size=10547712kB time=02:33:44.59 bitrate=9367.0kbits/s speed=72.3x    frame=495998 fps=3872 q=-1.0 size=10591744kB time=02:34:21.81 bitrate=9368.3kbits/s speed=72.3x    frame=497911 fps=3872 q=-1.0 size=10633216kB time=02:34:56.51 bitrate=9369.9kbits/s speed=72.3x    frame=500064 fps=3873 q=-1.0 size=10674432kB time=02:35:36.53 bitrate=9365.9kbits/s speed=72.3x    frame=502479 fps=3877 q=-1.0 size=10719232kB time=02:36:19.48 bitrate=9362.1kbits/s speed=72.4x    frame=504387 fps=3877 q=-1.0 size=10757888kB time=02:36:53.94 bitrate=9361.5kbits/s speed=72.4x    frame=506240 fps=3876 q=-1.0 size=10800128kB time=02:37:30.11 bitrate=9362.3kbits/s speed=72.4x    frame=508228 fps=3877 q=-1.0 size=10843648kB time=02:38:06.81 bitrate=9363.6kbits/s speed=72.4x    frame=510163 fps=3877 q=-1.0 size=10886144kB time=02:38:42.19 bitrate=9365.4kbits/s speed=72.4x    frame=511989 fps=3876 q=-1.0 size=10929408kB time=02:39:19.20 bitrate=9366.2kbits/s speed=72.4x    frame=513814 fps=3875 q=-1.0 size=10973184kB time=02:39:56.08 bitrate=9367.6kbits/s speed=72.4x    frame=515738 fps=3875 q=-1.0 size=11016448kB time=02:40:33.15 bitrate=9368.4kbits/s speed=72.4x    frame=517621 fps=3874 q=-1.0 size=11058688kB time=02:41:08.49 bitrate=9369.9kbits/s speed=72.4x    frame=519339 fps=3873 q=-1.0 size=11099136kB time=02:41:43.24 bitrate=9370.5kbits/s speed=72.4x    frame=521189 fps=3872 q=-1.0 size=11138304kB time=02:42:15.27 bitrate=9372.6kbits/s speed=72.3x    frame=523047 fps=3871 q=-1.0 size=11181824kB time=02:42:52.66 bitrate=9373.2kbits/s speed=72.3x    frame=525113 fps=3872 q=-1.0 size=11221504kB time=02:43:29.86 bitrate=9370.8kbits/s speed=72.3x    frame=527041 fps=3872 q=-1.0 size=11267072kB time=02:44:08.42 bitrate=9372.0kbits/s speed=72.4x    frame=529182 fps=3874 q=-1.0 size=11308800kB time=02:44:51.46 bitrate=9365.8kbits/s speed=72.4x    frame=531184 fps=3874 q=-1.0 size=11351552kB time=02:45:27.25 bitrate=9367.3kbits/s speed=72.4x    frame=533201 fps=3875 q=-1.0 size=11395584kB time=02:46:04.28 bitrate=9368.7kbits/s speed=72.4x    frame=535183 fps=3875 q=-1.0 size=11439104kB time=02:46:40.33 bitrate=9370.6kbits/s speed=72.4x    frame=536973 fps=3874 q=-1.0 size=11478528kB time=02:47:13.22 bitrate=9372.1kbits/s speed=72.4x    frame=539030 fps=3875 q=-1.0 size=11522304kB time=02:47:48.97 bitrate=9374.4kbits/s speed=72.4x    frame=540820 fps=3874 q=-1.0 size=11561216kB time=02:48:21.93 bitrate=9375.4kbits/s speed=72.4x    frame=542594 fps=3873 q=-1.0 size=11602176kB time=02:48:57.21 bitrate=9375.9kbits/s speed=72.4x    frame=544515 fps=3873 q=-1.0 size=11645440kB time=02:49:33.82 bitrate=9376.9kbits/s speed=72.4x    frame=546427 fps=3872 q=-1.0 size=11688448kB time=02:50:10.49 bitrate=9377.8kbits/s speed=72.4x    frame=548328 fps=3872 q=-1.0 size=11731712kB time=02:50:47.20 bitrate=9378.8kbits/s speed=72.4x    frame=550256 fps=3872 q=-1.0 size=11775744kB time=02:51:25.02 bitrate=9379.4kbits/s speed=72.4x    frame=552039 fps=3871 q=-1.0 size=11817216kB time=02:52:00.69 bitrate=9379.9kbits/s speed=72.4x    frame=553869 fps=3870 q=-1.0 size=11857408kB time=02:52:34.52 bitrate=9381.0kbits/s speed=72.4x    frame=555531 fps=3868 q=-1.0 size=11893760kB time=02:53:06.57 bitrate=9380.7kbits/s speed=72.3x    frame=557375 fps=3868 q=-1.0 size=11930880kB time=02:53:42.34 bitrate=9377.7kbits/s speed=72.3x    frame=559477 fps=3869 q=-1.0 size=11974144kB time=02:54:23.86 bitrate=9374.4kbits/s speed=72.4x    frame=561315 fps=3868 q=-1.0 size=12014080kB time=02:54:57.42 bitrate=9375.6kbits/s speed=72.3x    frame=563256 fps=3868 q=-1.0 size=12055808kB time=02:55:31.51 bitrate=9377.7kbits/s speed=72.3x    frame=565243 fps=3869 q=-1.0 size=12099072kB time=02:56:07.45 bitrate=9379.3kbits/s speed=72.3x    frame=567239 fps=3869 q=-1.0 size=12137984kB time=02:56:43.41 bitrate=9377.6kbits/s speed=72.3x    frame=569520 fps=3871 q=-1.0 size=12177152kB time=02:57:23.42 bitrate=9372.5kbits/s speed=72.4x    frame=571439 fps=3871 q=-1.0 size=12219136kB time=02:57:58.98 bitrate=9373.5kbits/s speed=72.3x    frame=573378 fps=3871 q=-1.0 size=12261120kB time=02:58:33.92 bitrate=9375.0kbits/s speed=72.3x    frame=575121 fps=3870 q=-1.0 size=12299008kB time=02:59:06.04 bitrate=9375.9kbits/s speed=72.3x    frame=576934 fps=3869 q=-1.0 size=12340224kB time=02:59:41.89 bitrate=9376.0kbits/s speed=72.3x    frame=578685 fps=3868 q=-1.0 size=12379392kB time=03:00:14.37 bitrate=9377.5kbits/s speed=72.3x    frame=580340 fps=3866 q=-1.0 size=12419840kB time=03:00:49.30 bitrate=9377.9kbits/s speed=72.3x    frame=582226 fps=3866 q=-1.0 size=12461568kB time=03:01:24.45 bitrate=9379.0kbits/s speed=72.3x    frame=583946 fps=3864 q=-1.0 size=12499200kB time=03:01:55.92 bitrate=9380.2kbits/s speed=72.2x    frame=585711 fps=3863 q=-1.0 size=12537088kB time=03:02:26.97 bitrate=9381.9kbits/s speed=72.2x    frame=587608 fps=3863 q=-1.0 size=12579584kB time=03:03:02.83 bitrate=9383.0kbits/s speed=72.2x    frame=589192 fps=3861 q=-1.0 size=12616448kB time=03:03:34.64 bitrate=9383.3kbits/s speed=72.2x    frame=591156 fps=3861 q=-1.0 size=12658176kB time=03:04:14.55 bitrate=9380.4kbits/s speed=72.2x    frame=593127 fps=3861 q=-1.0 size=12700672kB time=03:04:50.11 bitrate=9381.7kbits/s speed=72.2x    frame=595199 fps=3862 q=-1.0 size=12739072kB time=03:05:29.41 bitrate=9376.8kbits/s speed=72.2x    frame=597097 fps=3862 q=-1.0 size=12780032kB time=03:06:03.59 bitrate=9378.2kbits/s speed=72.2x    frame=598841 fps=3861 q=-1.0 size=12817920kB time=03:06:35.91 bitrate=9378.8kbits/s speed=72.2x    frame=600680 fps=3860 q=-1.0 size=12859392kB time=03:07:11.38 bitrate=9379.4kbits/s speed=72.2x    frame=602574 fps=3860 q=-1.0 size=12901632kB time=03:07:46.43 bitrate=9381.0kbits/s speed=72.2x    frame=604265 fps=3858 q=-1.0 size=12942592kB time=03:08:21.86 bitrate=9381.3kbits/s speed=72.2x    frame=606227 fps=3858 q=-1.0 size=12984064kB time=03:08:55.87 bitrate=9383.1kbits/s speed=72.1x    frame=608080 fps=3858 q=-1.0 size=13024768kB time=03:09:30.55 bitrate=9383.8kbits/s speed=72.1x    frame=610027 fps=3858 q=-1.0 size=13065216kB time=03:10:03.16 bitrate=9386.0kbits/s speed=72.1x    frame=612188 fps=3859 q=-1.0 size=13108736kB time=03:10:42.45 bitrate=9384.9kbits/s speed=72.1x    frame=614571 fps=3862 q=-1.0 size=13150464kB time=03:11:24.87 bitrate=9380.0kbits/s speed=72.2x    frame=616328 fps=3861 q=-1.0 size=13188096kB time=03:11:55.97 bitrate=9381.5kbits/s speed=72.1x    frame=618289 fps=3861 q=-1.0 size=13230080kB time=03:12:30.29 bitrate=9383.4kbits/s speed=72.1x    frame=620097 fps=3861 q=-1.0 size=13267968kB time=03:13:00.70 bitrate=9385.5kbits/s speed=72.1x    frame=622007 fps=3860 q=-1.0 size=13307648kB time=03:13:32.63 bitrate=9387.7kbits/s speed=72.1x    frame=623946 fps=3861 q=-1.0 size=13348352kB time=03:14:05.62 bitrate=9389.8kbits/s speed=72.1x    frame=625667 fps=3859 q=-1.0 size=13385728kB time=03:14:36.86 bitrate=9390.9kbits/s speed=  72x    frame=627571 fps=3859 q=-1.0 size=13426432kB time=03:15:10.28 bitrate=9392.5kbits/s speed=  72x    frame=629424 fps=3859 q=-1.0 size=13468160kB time=03:15:46.24 bitrate=9392.9kbits/s speed=  72x    frame=631160 fps=3857 q=-1.0 size=13505792kB time=03:16:17.47 bitrate=9394.2kbits/s speed=  72x    frame=633122 fps=3858 q=-1.0 size=13547776kB time=03:16:51.85 bitrate=9395.9kbits/s speed=  72x    frame=634979 fps=3857 q=-1.0 size=13587200kB time=03:17:24.10 bitrate=9397.6kbits/s speed=71.9x    frame=636907 fps=3857 q=-1.0 size=13627648kB time=03:17:56.86 bitrate=9399.6kbits/s speed=71.9x    frame=638797 fps=3857 q=-1.0 size=13669632kB time=03:18:31.79 bitrate=9400.9kbits/s speed=71.9x    frame=640551 fps=3856 q=-1.0 size=13707776kB time=03:19:03.58 bitrate=9402.0kbits/s speed=71.9x    frame=642470 fps=3856 q=-1.0 size=13749760kB time=03:19:38.40 bitrate=9403.4kbits/s speed=71.9x    frame=644490 fps=3856 q=-1.0 size=13793792kB time=03:20:15.08 bitrate=9404.7kbits/s speed=71.9x    frame=646498 fps=3857 q=-1.0 size=13832192kB time=03:20:52.04 bitrate=9402.0kbits/s speed=71.9x    frame=648918 fps=3860 q=-1.0 size=13875968kB time=03:21:37.89 bitrate=9396.0kbits/s speed=  72x    frame=650813 fps=3859 q=-1.0 size=13916928kB time=03:22:12.11 bitrate=9397.2kbits/s speed=71.9x    frame=652550 fps=3858 q=-1.0 size=13955328kB time=03:22:43.90 bitrate=9398.5kbits/s speed=71.9x    frame=654465 fps=3858 q=-1.0 size=13997312kB time=03:23:19.38 bitrate=9399.3kbits/s speed=71.9x    frame=656257 fps=3857 q=-1.0 size=14036224kB time=03:23:52.05 bitrate=9400.3kbits/s speed=71.9x    frame=658285 fps=3858 q=-1.0 size=14079232kB time=03:24:26.95 bitrate=9402.3kbits/s speed=71.9x    frame=660174 fps=3858 q=-1.0 size=14119424kB time=03:25:00.18 bitrate=9403.6kbits/s speed=71.9x    frame=661799 fps=3856 q=-1.0 size=14155264kB time=03:25:30.00 bitrate=9404.7kbits/s speed=71.8x    frame=663638 fps=3855 q=-1.0 size=14196736kB time=03:26:05.76 bitrate=9405.0kbits/s speed=71.8x    frame=665563 fps=3855 q=-1.0 size=14238976kB time=03:26:40.67 bitrate=9406.4kbits/s speed=71.8x    frame=667127 fps=3853 q=-1.0 size=14276864kB time=03:27:13.34 bitrate=9406.6kbits/s speed=71.8x    frame=668877 fps=3852 q=-1.0 size=14318848kB time=03:27:49.60 bitrate=9406.9kbits/s speed=71.8x    frame=670681 fps=3851 q=-1.0 size=14358784kB time=03:28:22.85 bitrate=9408.0kbits/s speed=71.8x    frame=672828 fps=3853 q=-1.0 size=14400512kB time=03:29:02.70 bitrate=9405.4kbits/s speed=71.8x    frame=674955 fps=3854 q=-1.0 size=14443264kB time=03:29:42.78 bitrate=9403.3kbits/s speed=71.8x    frame=676730 fps=3853 q=-1.0 size=14481920kB time=03:30:15.40 bitrate=9404.0kbits/s speed=71.8x    frame=678729 fps=3853 q=-1.0 size=14525952kB time=03:30:52.46 bitrate=9405.0kbits/s speed=71.8x    frame=680735 fps=3854 q=-1.0 size=14569216kB time=03:31:28.73 bitrate=9406.1kbits/s speed=71.8x    frame=682534 fps=3853 q=-1.0 size=14610944kB time=03:32:04.30 bitrate=9406.6kbits/s speed=71.8x    frame=684376 fps=3853 q=-1.0 size=14654976kB time=03:32:41.97 bitrate=9407.1kbits/s speed=71.8x    frame=686252 fps=3852 q=-1.0 size=14698496kB time=03:33:20.17 bitrate=9406.9kbits/s speed=71.9x    frame=688069 fps=3852 q=-1.0 size=14738432kB time=03:33:54.02 bitrate=9407.6kbits/s speed=71.8x    frame=689934 fps=3851 q=-1.0 size=14782720kB time=03:34:32.79 bitrate=9407.4kbits/s speed=71.9x    frame=691673 fps=3850 q=-1.0 size=14822656kB time=03:35:07.37 bitrate=9407.6kbits/s speed=71.9x    frame=693481 fps=3850 q=-1.0 size=14864896kB time=03:35:43.96 bitrate=9407.7kbits/s speed=71.9x    frame=695652 fps=3851 q=-1.0 size=14908416kB time=03:36:24.31 bitrate=9405.9kbits/s speed=71.9x    frame=697570 fps=3851 q=-1.0 size=14952448kB time=03:37:02.34 bitrate=9406.2kbits/s speed=71.9x    frame=699955 fps=3854 q=-1.0 size=14995200kB time=03:37:47.19 bitrate=9400.7kbits/s speed=71.9x    frame=701956 fps=3854 q=-1.0 size=15040000kB time=03:38:25.69 bitrate=9401.1kbits/s speed=  72x    frame=703778 fps=3853 q=-1.0 size=15080704kB time=03:39:00.17 bitrate=9401.8kbits/s speed=71.9x    frame=705722 fps=3853 q=-1.0 size=15125248kB time=03:39:38.92 bitrate=9401.8kbits/s speed=  72x    frame=707616 fps=3853 q=-1.0 size=15167488kB time=03:40:14.50 bitrate=9402.7kbits/s speed=  72x    frame=709562 fps=3853 q=-1.0 size=15211520kB time=03:40:52.23 bitrate=9403.2kbits/s speed=  72x    frame=711440 fps=3853 q=-1.0 size=15254784kB time=03:41:29.05 bitrate=9403.8kbits/s speed=  72x    frame=713202 fps=3852 q=-1.0 size=15293696kB time=03:42:01.71 bitrate=9404.6kbits/s speed=  72x    frame=715140 fps=3852 q=-1.0 size=15335424kB time=03:42:35.92 bitrate=9406.1kbits/s speed=71.9x    frame=717193 fps=3853 q=-1.0 size=15379200kB time=03:43:12.00 bitrate=9407.6kbits/s speed=71.9x    frame=721261 fps=3864 q=-1.0 size=15419904kB time=03:44:22.27 bitrate=9383.2kbits/s speed=72.1x    frame=724596 fps=3872 q=-1.0 size=15464192kB time=03:45:18.34 bitrate=9371.2kbits/s speed=72.2x    frame=727346 fps=3876 q=-1.0 size=15509504kB time=03:46:06.83 bitrate=9365.0kbits/s speed=72.3x    frame=729735 fps=3879 q=-1.0 size=15554816kB time=03:46:48.06 bitrate=9363.9kbits/s speed=72.3x    frame=732334 fps=3882 q=-1.0 size=15600384kB time=03:47:32.33 bitrate=9360.9kbits/s speed=72.4x    frame=734528 fps=3883 q=-1.0 size=15642880kB time=03:48:09.93 bitrate=9360.6kbits/s speed=72.4x    frame=736813 fps=3885 q=-1.0 size=15685376kB time=03:48:50.64 bitrate=9358.2kbits/s speed=72.4x    frame=739764 fps=3890 q=-1.0 size=15730944kB time=03:49:39.80 bitrate=9351.9kbits/s speed=72.5x    frame=742667 fps=3895 q=-1.0 size=15772160kB time=03:50:28.16 bitrate=9343.6kbits/s speed=72.5x    frame=745390 fps=3899 q=-1.0 size=15816448kB time=03:51:13.55 bitrate=9339.2kbits/s speed=72.6x    frame=748027 fps=3903 q=-1.0 size=15860224kB time=03:51:57.47 bitrate=9335.5kbits/s speed=72.6x    frame=750562 fps=3906 q=-1.0 size=15903488kB time=03:52:39.69 bitrate=9332.7kbits/s speed=72.6x    frame=753640 fps=3912 q=-1.0 size=15947520kB time=03:53:30.97 bitrate=9324.3kbits/s speed=72.7x    frame=756098 fps=3914 q=-1.0 size=15990784kB time=03:54:11.89 bitrate=9322.3kbits/s speed=72.7x    frame=758409 fps=3916 q=-1.0 size=16032768kB time=03:54:50.41 bitrate=9321.3kbits/s speed=72.8x    frame=760914 fps=3919 q=-1.0 size=16077568kB time=03:55:32.12 bitrate=9319.7kbits/s speed=72.8x    frame=763342 fps=3922 q=-1.0 size=16119552kB time=03:56:12.59 bitrate=9317.4kbits/s speed=72.8x    frame=765743 fps=3924 q=-1.0 size=16163840kB time=03:56:53.71 bitrate=9315.9kbits/s speed=72.8x    frame=769114 fps=3931 q=-1.0 size=16207104kB time=03:57:50.87 bitrate=9303.5kbits/s speed=72.9x    frame=771049 fps=3931 q=-1.0 size=16246272kB time=03:58:24.65 bitrate=9303.9kbits/s speed=72.9x    frame=772905 fps=3930 q=-1.0 size=16284672kB time=03:58:58.01 bitrate=9304.2kbits/s speed=72.9x    frame=775049 fps=3931 q=-1.0 size=16328448kB time=03:59:37.63 bitrate=9303.5kbits/s speed=72.9x    frame=777143 fps=3932 q=-1.0 size=16370432kB time=04:00:15.92 bitrate=9302.7kbits/s speed=72.9x    frame=779359 fps=3933 q=-1.0 size=16414464kB time=04:00:57.95 bitrate=9300.6kbits/s speed=  73x    frame=781546 fps=3934 q=-1.0 size=16455680kB time=04:01:35.57 bitrate=9299.7kbits/s speed=  73x    frame=783516 fps=3934 q=-1.0 size=16495360kB time=04:02:09.35 bitrate=9300.5kbits/s speed=  73x    frame=785700 fps=3935 q=-1.0 size=16538368kB time=04:02:47.89 bitrate=9300.1kbits/s speed=  73x    frame=788191 fps=3938 q=-1.0 size=16576768kB time=04:03:30.92 bitrate=9294.2kbits/s speed=  73x    frame=791371 fps=3944 q=-1.0 size=16619264kB time=04:04:28.75 bitrate=9281.3kbits/s speed=73.1x    frame=793488 fps=3945 q=-1.0 size=16663552kB time=04:05:08.15 bitrate=9281.1kbits/s speed=73.1x    frame=795355 fps=3944 q=-1.0 size=16700672kB time=04:05:41.67 bitrate=9280.6kbits/s speed=73.1x    frame=797545 fps=3945 q=-1.0 size=16744192kB time=04:06:19.82 bitrate=9280.8kbits/s speed=73.1x    frame=799607 fps=3946 q=-1.0 size=16787456kB time=04:06:58.14 bitrate=9280.7kbits/s speed=73.1x    frame=801721 fps=3946 q=-1.0 size=16830720kB time=04:07:36.99 bitrate=9280.3kbits/s speed=73.1x    frame=803893 fps=3947 q=-1.0 size=16873472kB time=04:08:15.99 bitrate=9279.5kbits/s speed=73.1x    frame=805958 fps=3948 q=-1.0 size=16914688kB time=04:08:55.21 bitrate=9277.7kbits/s speed=73.2x    frame=807843 fps=3947 q=-1.0 size=16952832kB time=04:09:28.20 bitrate=9278.2kbits/s speed=73.1x    frame=810080 fps=3948 q=-1.0 size=16994816kB time=04:10:08.78 bitrate=9276.0kbits/s speed=73.2x    frame=811805 fps=3947 q=-1.0 size=17030144kB time=04:10:40.26 bitrate=9275.8kbits/s speed=73.1x    frame=814107 fps=3949 q=-1.0 size=17071872kB time=04:11:23.60 bitrate=9271.8kbits/s speed=73.2x    frame=816225 fps=3950 q=-1.0 size=17114112kB time=04:12:01.68 bitrate=9271.4kbits/s speed=73.2x    frame=818294 fps=3950 q=-1.0 size=17153792kB time=04:12:38.45 bitrate=9270.3kbits/s speed=73.2x    frame=820505 fps=3951 q=-1.0 size=17196032kB time=04:13:15.86 bitrate=9270.3kbits/s speed=73.2x    frame=823328 fps=3955 q=-1.0 size=17237504kB time=04:14:06.46 bitrate=9261.8kbits/s speed=73.2x    frame=825345 fps=3955 q=-1.0 size=17280256kB time=04:14:46.94 bitrate=9260.2kbits/s speed=73.3x    frame=828042 fps=3959 q=-1.0 size=17323008kB time=04:15:35.34 bitrate=9253.8kbits/s speed=73.3x    frame=830224 fps=3960 q=-1.0 size=17364224kB time=04:16:19.68 bitrate=9249.1kbits/s speed=73.4x    frame=832603 fps=3962 q=-1.0 size=17405952kB time=04:17:05.62 bitrate=9243.7kbits/s speed=73.4x    frame=834711 fps=3962 q=-1.0 size=17449216kB time=04:17:47.73 bitrate=9241.4kbits/s speed=73.4x    frame=836629 fps=3962 q=-1.0 size=17486592kB time=04:18:24.85 bitrate=9239.1kbits/s speed=73.4x    frame=839348 fps=3965 q=-1.0 size=17528832kB time=04:19:14.79 bitrate=9231.6kbits/s speed=73.5x    frame=842823 fps=3972 q=-1.0 size=17570816kB time=04:20:16.69 bitrate=9217.1kbits/s speed=73.6x    frame=845149 fps=3974 q=-1.0 size=17607168kB time=04:20:59.45 bitrate=9210.9kbits/s speed=73.6x    frame=847746 fps=3977 q=-1.0 size=17650176kB time=04:21:46.24 bitrate=9205.9kbits/s speed=73.7x    frame=850241 fps=3979 q=-1.0 size=17687040kB time=04:22:28.94 bitrate=9200.1kbits/s speed=73.7x    frame=852789 fps=3982 q=-1.0 size=17729024kB time=04:23:16.42 bitrate=9194.2kbits/s speed=73.8x    frame=855324 fps=3984 q=-1.0 size=17769984kB time=04:24:07.41 bitrate=9185.8kbits/s speed=73.8x    frame=857400 fps=3985 q=-1.0 size=17811456kB time=04:24:45.43 bitrate=9185.2kbits/s speed=73.8x    frame=859560 fps=3985 q=-1.0 size=17853696kB time=04:25:25.61 bitrate=9183.8kbits/s speed=73.8x    frame=861826 fps=3987 q=-1.0 size=17896448kB time=04:26:09.49 bitrate=9180.5kbits/s speed=73.9x    frame=864187 fps=3988 q=-1.0 size=17934592kB time=04:26:52.03 bitrate=9175.6kbits/s speed=73.9x    frame=866495 fps=3990 q=-1.0 size=17978368kB time=04:27:34.19 bitrate=9173.8kbits/s speed=73.9x    frame=868570 fps=3990 q=-1.0 size=18019584kB time=04:28:13.98 bitrate=9172.1kbits/s speed=73.9x    frame=870731 fps=3991 q=-1.0 size=18062336kB time=04:28:56.31 bitrate=9169.8kbits/s speed=  74x    frame=872612 fps=3990 q=-1.0 size=18104832kB time=04:29:35.37 bitrate=9169.2kbits/s speed=  74x    frame=875087 fps=3993 q=-1.0 size=18144512kB time=04:30:21.39 bitrate=9163.2kbits/s speed=  74x    frame=878330 fps=3998 q=-1.0 size=18182144kB time=04:31:15.45 bitrate=9151.7kbits/s speed=74.1x    frame=881453 fps=4003 q=-1.0 size=18222080kB time=04:32:07.47 bitrate=9142.6kbits/s speed=74.2x    frame=883563 fps=4004 q=-1.0 size=18257920kB time=04:32:42.59 bitrate=9140.9kbits/s speed=74.1x    frame=887650 fps=4013 q=-1.0 size=18296832kB time=04:33:50.68 bitrate=9122.4kbits/s speed=74.3x    frame=890019 fps=4015 q=-1.0 size=18338048kB time=04:34:30.18 bitrate=9121.0kbits/s speed=74.3x    frame=893164 fps=4020 q=-1.0 size=18373888kB time=04:35:22.57 bitrate=9109.9kbits/s speed=74.4x    frame=895782 fps=4023 q=-1.0 size=18415872kB time=04:36:06.18 bitrate=9106.7kbits/s speed=74.4x    frame=897885 fps=4023 q=-1.0 size=18457344kB time=04:36:41.21 bitrate=9107.9kbits/s speed=74.4x    frame=900089 fps=4024 q=-1.0 size=18497792kB time=04:37:17.92 bitrate=9107.7kbits/s speed=74.4x    frame=903117 fps=4029 q=-1.0 size=18541312kB time=04:38:08.38 bitrate=9101.6kbits/s speed=74.4x    frame=905255 fps=4029 q=-1.0 size=18579712kB time=04:38:43.98 bitrate=9101.0kbits/s speed=74.4x    frame=908066 fps=4033 q=-1.0 size=18622208kB time=04:39:30.82 bitrate=9096.3kbits/s speed=74.5x    frame=910206 fps=4033 q=-1.0 size=18665984kB time=04:40:10.13 bitrate=9096.4kbits/s speed=74.5x    frame=913823 fps=4040 q=-1.0 size=18704640kB time=04:41:10.88 bitrate=9082.4kbits/s speed=74.6x    frame=916767 fps=4044 q=-1.0 size=18746880kB time=04:41:59.91 bitrate=9076.5kbits/s speed=74.6x    frame=919392 fps=4047 q=-1.0 size=18790912kB time=04:42:43.67 bitrate=9074.4kbits/s speed=74.7x    frame=921393 fps=4047 q=-1.0 size=18827776kB time=04:43:16.97 bitrate=9074.4kbits/s speed=74.7x    frame=923837 fps=4049 q=-1.0 size=18872064kB time=04:43:57.73 bitrate=9074.0kbits/s speed=74.7x    frame=926061 fps=4049 q=-1.0 size=18913024kB time=04:44:34.74 bitrate=9074.0kbits/s speed=74.7x    frame=927974 fps=4049 q=-1.0 size=18956288kB time=04:45:12.08 bitrate=9074.9kbits/s speed=74.7x    frame=930116 fps=4050 q=-1.0 size=18999552kB time=04:45:51.60 bitrate=9074.6kbits/s speed=74.7x    frame=932233 fps=4050 q=-1.0 size=19042048kB time=04:46:29.37 bitrate=9074.9kbits/s speed=74.7x    frame=934251 fps=4050 q=-1.0 size=19086592kB time=04:47:07.31 bitrate=9076.1kbits/s speed=74.7x    frame=937120 fps=4053 q=-1.0 size=19126784kB time=04:47:55.58 bitrate=9069.8kbits/s speed=74.7x    frame=939126 fps=4053 q=-1.0 size=19163648kB time=04:48:30.28 bitrate=9069.1kbits/s speed=74.7x    frame=941373 fps=4054 q=-1.0 size=19207680kB time=04:49:07.69 bitrate=9070.3kbits/s speed=74.7x    frame=943457 fps=4055 q=-1.0 size=19250176kB time=04:49:44.88 bitrate=9071.0kbits/s speed=74.7x    frame=946635 fps=4059 q=-1.0 size=19291904kB time=04:50:39.01 bitrate=9062.4kbits/s speed=74.8x    frame=949348 fps=4062 q=-1.0 size=19333120kB time=04:51:24.70 bitrate=9058.0kbits/s speed=74.8x    frame=951823 fps=4064 q=-1.0 size=19373056kB time=04:52:07.75 bitrate=9054.4kbits/s speed=74.8x    frame=954732 fps=4068 q=-1.0 size=19411712kB time=04:52:58.23 bitrate=9046.5kbits/s speed=74.9x    frame=957041 fps=4069 q=-1.0 size=19453696kB time=04:53:43.74 bitrate=9042.6kbits/s speed=74.9x    frame=959160 fps=4070 q=-1.0 size=19492864kB time=04:54:24.53 bitrate=9039.9kbits/s speed=74.9x    frame=961456 fps=4071 q=-1.0 size=19536128kB time=04:55:06.41 bitrate=9038.5kbits/s speed=  75x    frame=963733 fps=4072 q=-1.0 size=19578880kB time=04:55:50.00 bitrate=9036.1kbits/s speed=  75x    frame=966465 fps=4075 q=-1.0 size=19617024kB time=04:56:37.50 bitrate=9029.5kbits/s speed=  75x    frame=969610 fps=4079 q=-1.0 size=19658496kB time=04:57:34.32 bitrate=9019.8kbits/s speed=75.1x    frame=972023 fps=4081 q=-1.0 size=19698432kB time=04:58:15.55 bitrate=9017.3kbits/s speed=75.1x    frame=974976 fps=4085 q=-1.0 size=19736576kB time=04:59:04.76 bitrate=9010.0kbits/s speed=75.2x    frame=977293 fps=4086 q=-1.0 size=19775744kB time=04:59:43.36 bitrate=9008.5kbits/s speed=75.2x    frame=979432 fps=4086 q=-1.0 size=19812608kB time=05:00:18.99 bitrate=9007.4kbits/s speed=75.2x    frame=982079 fps=4089 q=-1.0 size=19851776kB time=05:01:03.09 bitrate=9003.2kbits/s speed=75.2x    frame=984464 fps=4090 q=-1.0 size=19892992kB time=05:01:42.84 bitrate=9002.1kbits/s speed=75.2x    frame=986750 fps=4091 q=-1.0 size=19929088kB time=05:02:20.91 bitrate=8999.5kbits/s speed=75.2x    frame=989195 fps=4093 q=-1.0 size=19969024kB time=05:03:01.65 bitrate=8997.3kbits/s speed=75.2x    frame=991509 fps=4094 q=-1.0 size=20008960kB time=05:03:40.19 bitrate=8996.2kbits/s speed=75.2x    frame=993846 fps=4095 q=-1.0 size=20044544kB time=05:04:19.17 bitrate=8993.0kbits/s speed=75.2x    frame=996242 fps=4096 q=-1.0 size=20086016kB time=05:04:59.08 bitrate=8992.0kbits/s speed=75.2x    frame=1000318 fps=4105 q=-1.0 size=20123136kB time=05:06:06.98 bitrate=8975.3kbits/s speed=75.4x    frame=1003279 fps=4108 q=-1.0 size=20163840kB time=05:06:56.29 bitrate=8969.4kbits/s speed=75.4x    frame=1006623 fps=4114 q=-1.0 size=20205056kB time=05:07:52.02 bitrate=8960.6kbits/s speed=75.5x    frame=1009170 fps=4116 q=-1.0 size=20241664kB time=05:08:34.45 bitrate=8956.2kbits/s speed=75.5x    frame=1011853 fps=4118 q=-1.0 size=20282624kB time=05:09:19.14 bitrate=8952.7kbits/s speed=75.5x    frame=1014471 fps=4120 q=-1.0 size=20325120kB time=05:10:02.75 bitrate=8950.5kbits/s speed=75.6x    frame=1016863 fps=4122 q=-1.0 size=20361984kB time=05:10:42.62 bitrate=8947.5kbits/s speed=75.6x    frame=1019518 fps=4124 q=-1.0 size=20403968kB time=05:11:26.82 bitrate=8944.8kbits/s speed=75.6x    frame=1022316 fps=4127 q=-1.0 size=20442880kB time=05:12:13.46 bitrate=8939.5kbits/s speed=75.6x    frame=1024966 fps=4129 q=-1.0 size=20482304kB time=05:12:57.60 bitrate=8935.7kbits/s speed=75.7x    frame=1028103 fps=4134 q=-1.0 size=20524800kB time=05:13:49.88 bitrate=8929.4kbits/s speed=75.7x    frame=1031020 fps=4137 q=-1.0 size=20563712kB time=05:14:38.48 bitrate=8923.3kbits/s speed=75.8x    frame=1033312 fps=4138 q=-1.0 size=20602880kB time=05:15:16.67 bitrate=8922.2kbits/s speed=75.8x    frame=1035769 fps=4140 q=-1.0 size=20644608kB time=05:15:57.58 bitrate=8921.0kbits/s speed=75.8x    frame=1037929 fps=4140 q=-1.0 size=20679680kB time=05:16:33.57 bitrate=8919.2kbits/s speed=75.8x    frame=1040271 fps=4141 q=-1.0 size=20721408kB time=05:17:12.56 bitrate=8918.9kbits/s speed=75.8x    frame=1042737 fps=4143 q=-1.0 size=20763136kB time=05:17:53.66 bitrate=8917.6kbits/s speed=75.8x    frame=1044852 fps=4143 q=-1.0 size=20801536kB time=05:18:28.87 bitrate=8917.6kbits/s speed=75.8x    frame=1047286 fps=4144 q=-1.0 size=20842496kB time=05:19:09.44 bitrate=8916.3kbits/s speed=75.8x    frame=1049760 fps=4146 q=-1.0 size=20882688kB time=05:19:50.65 bitrate=8914.3kbits/s speed=75.8x    frame=1052008 fps=4146 q=-1.0 size=20921856kB time=05:20:28.10 bitrate=8913.6kbits/s speed=75.8x    frame=1054411 fps=4148 q=-1.0 size=20964352kB time=05:21:08.08 bitrate=8913.2kbits/s speed=75.8x    frame=1056818 fps=4149 q=-1.0 size=21002752kB time=05:21:48.21 bitrate=8911.0kbits/s speed=75.8x    frame=1059170 fps=4150 q=-1.0 size=21043712kB time=05:22:27.38 bitrate=8910.3kbits/s speed=75.8x    frame=1061959 fps=4153 q=-1.0 size=21085952kB time=05:23:14.74 bitrate=8906.3kbits/s speed=75.8x    frame=1064199 fps=4154 q=-1.0 size=21122304kB time=05:23:52.56 bitrate=8904.3kbits/s speed=75.8x    frame=1066722 fps=4155 q=-1.0 size=21163776kB time=05:24:35.25 bitrate=8902.3kbits/s speed=75.9x    frame=1068931 fps=4156 q=-1.0 size=21203968kB time=05:25:13.25 bitrate=8901.8kbits/s speed=75.9x    frame=1071447 fps=4157 q=-1.0 size=21246208kB time=05:25:56.23 bitrate=8899.9kbits/s speed=75.9x    frame=1073991 fps=4159 q=-1.0 size=21288448kB time=05:26:39.44 bitrate=8898.0kbits/s speed=75.9x    frame=1076085 fps=4159 q=-1.0 size=21327616kB time=05:27:17.97 bitrate=8896.8kbits/s speed=75.9x    frame=1078339 fps=4160 q=-1.0 size=21369344kB time=05:27:58.03 bitrate=8896.1kbits/s speed=75.9x    frame=1080895 fps=4162 q=-1.0 size=21410048kB time=05:28:40.65 bitrate=8893.8kbits/s speed=75.9x    frame=1082889 fps=4161 q=-1.0 size=21446912kB time=05:29:15.67 bitrate=8893.3kbits/s speed=75.9x    frame=1085405 fps=4163 q=-1.0 size=21488896kB time=05:29:59.20 bitrate=8891.1kbits/s speed=75.9x    frame=1087823 fps=4164 q=-1.0 size=21531904kB time=05:30:39.51 bitrate=8890.8kbits/s speed=75.9x    frame=1090018 fps=4165 q=-1.0 size=21570048kB time=05:31:16.07 bitrate=8890.2kbits/s speed=75.9x    frame=1092546 fps=4167 q=-1.0 size=21614848kB time=05:31:58.17 bitrate=8889.8kbits/s speed=  76x    frame=1095170 fps=4169 q=-1.0 size=21655808kB time=05:32:41.90 bitrate=8887.1kbits/s speed=  76x    frame=1097828 fps=4171 q=-1.0 size=21696256kB time=05:33:26.19 bitrate=8884.0kbits/s speed=  76x    frame=1100434 fps=4173 q=-1.0 size=21738752kB time=05:34:09.61 bitrate=8882.2kbits/s speed=  76x    frame=1102598 fps=4173 q=-1.0 size=21776384kB time=05:34:45.66 bitrate=8881.6kbits/s speed=  76x    frame=1105156 fps=4175 q=-1.0 size=21818880kB time=05:35:28.30 bitrate=8880.0kbits/s speed=  76x    frame=1107627 fps=4176 q=-1.0 size=21862144kB time=05:36:10.14 bitrate=8879.2kbits/s speed=  76x    frame=1110187 fps=4178 q=-1.0 size=21905920kB time=05:36:56.89 bitrate=8876.4kbits/s speed=76.1x    frame=1113885 fps=4184 q=-1.0 size=21948416kB time=05:38:00.91 bitrate=8865.5kbits/s speed=76.2x    frame=1116412 fps=4186 q=-1.0 size=21987072kB time=05:38:46.62 bitrate=8861.2kbits/s speed=76.2x    frame=1118452 fps=4185 q=-1.0 size=22031360kB time=05:39:25.01 bitrate=8862.3kbits/s speed=76.2x    frame=1120494 fps=4185 q=-1.0 size=22074880kB time=05:40:00.75 bitrate=8864.2kbits/s speed=76.2x    frame=1122369 fps=4184 q=-1.0 size=22113280kB time=05:40:33.20 bitrate=8865.6kbits/s speed=76.2x    frame=1124586 fps=4185 q=-1.0 size=22158080kB time=05:41:13.72 bitrate=8865.9kbits/s speed=76.2x    frame=1126566 fps=4184 q=-1.0 size=22199808kB time=05:41:47.75 bitrate=8867.9kbits/s speed=76.2x    frame=1128536 fps=4184 q=-1.0 size=22240512kB time=05:42:22.93 bitrate=8869.0kbits/s speed=76.2x    frame=1131234 fps=4186 q=-1.0 size=22281472kB time=05:43:08.40 bitrate=8865.7kbits/s speed=76.2x    frame=1136159 fps=4197 q=-1.0 size=22316544kB time=05:44:30.43 bitrate=8844.4kbits/s speed=76.4x    frame=1139851 fps=4203 q=-1.0 size=22354688kB time=05:45:31.94 bitrate=8833.2kbits/s speed=76.4x    frame=1142315 fps=4204 q=-1.0 size=22394880kB time=05:46:12.96 bitrate=8831.6kbits/s speed=76.4x    frame=1146008 fps=4210 q=-1.0 size=22436864kB time=05:47:14.46 bitrate=8822.1kbits/s speed=76.5x    frame=1148966 fps=4213 q=-1.0 size=22478080kB time=05:48:03.74 bitrate=8817.4kbits/s speed=76.6x    frame=1151193 fps=4213 q=-1.0 size=22519808kB time=05:48:40.83 bitrate=8818.1kbits/s speed=76.6x    frame=1155574 fps=4222 q=-1.0 size=22562048kB time=05:49:53.85 bitrate=8803.9kbits/s speed=76.7x    frame=1157679 fps=4222 q=-1.0 size=22602496kB time=05:50:28.91 bitrate=8805.0kbits/s speed=76.7x    frame=1159713 fps=4221 q=-1.0 size=22644480kB time=05:51:02.77 bitrate=8807.2kbits/s speed=76.7x    frame=1161803 fps=4221 q=-1.0 size=22687488kB time=05:51:37.58 bitrate=8809.3kbits/s speed=76.7x    frame=1164020 fps=4222 q=-1.0 size=22726912kB time=05:52:14.54 bitrate=8809.2kbits/s speed=76.6x    frame=1167864 fps=4228 q=-1.0 size=22768384kB time=05:53:18.56 bitrate=8798.6kbits/s speed=76.7x    frame=1171449 fps=4233 q=-1.0 size=22807552kB time=05:54:18.30 bitrate=8789.0kbits/s speed=76.8x    frame=1175691 fps=4241 q=-1.0 size=22845184kB time=05:55:28.97 bitrate=8774.3kbits/s speed=76.9x    frame=1178189 fps=4242 q=-1.0 size=22888704kB time=05:56:10.59 bitrate=8773.9kbits/s speed=76.9x    frame=1180528 fps=4243 q=-1.0 size=22929152kB time=05:56:49.54 bitrate=8773.5kbits/s speed=76.9x    frame=1183408 fps=4246 q=-1.0 size=22972672kB time=05:57:37.53 bitrate=8770.4kbits/s speed=  77x    frame=1186195 fps=4248 q=-1.0 size=23016448kB time=05:58:23.93 bitrate=8768.2kbits/s speed=  77x    frame=1188609 fps=4249 q=-1.0 size=23055104kB time=05:59:04.18 bitrate=8766.5kbits/s speed=  77x    frame=1191304 fps=4251 q=-1.0 size=23098368kB time=05:59:49.07 bitrate=8764.7kbits/s speed=  77x    frame=1194434 fps=4255 q=-1.0 size=23141632kB time=06:00:41.20 bitrate=8760.0kbits/s speed=77.1x    frame=1197086 fps=4256 q=-1.0 size=23179520kB time=06:01:25.37 bitrate=8756.4kbits/s speed=77.1x    frame=1199974 fps=4259 q=-1.0 size=23223552kB time=06:02:13.43 bitrate=8753.7kbits/s speed=77.1x    frame=1202628 fps=4261 q=-1.0 size=23266816kB time=06:02:57.69 bitrate=8752.2kbits/s speed=77.2x    frame=1205366 fps=4263 q=-1.0 size=23307520kB time=06:03:43.31 bitrate=8749.1kbits/s speed=77.2x    frame=1207929 fps=4265 q=-1.0 size=23348736kB time=06:04:25.97 bitrate=8747.5kbits/s speed=77.2x    frame=1210344 fps=4266 q=-1.0 size=23386368kB time=06:05:06.21 bitrate=8745.5kbits/s speed=77.2x    frame=1213295 fps=4269 q=-1.0 size=23428352kB time=06:05:55.35 bitrate=8741.6kbits/s speed=77.2x    frame=1215699 fps=4269 q=-1.0 size=23470848kB time=06:06:35.40 bitrate=8741.5kbits/s speed=77.2x    frame=1218787 fps=4273 q=-1.0 size=23508224kB time=06:07:26.85 bitrate=8735.0kbits/s speed=77.3x    frame=1222654 fps=4279 q=-1.0 size=23547904kB time=06:08:31.30 bitrate=8724.2kbits/s speed=77.4x    frame=1224984 fps=4280 q=-1.0 size=23591424kB time=06:09:10.10 bitrate=8725.1kbits/s speed=77.4x    frame=1228772 fps=4285 q=-1.0 size=23629056kB time=06:10:13.22 bitrate=8714.1kbits/s speed=77.5x    frame=1233004 fps=4293 q=-1.0 size=23672576kB time=06:11:23.73 bitrate=8702.6kbits/s speed=77.6x    frame=1235917 fps=4295 q=-1.0 size=23712768kB time=06:12:12.26 bitrate=8698.4kbits/s speed=77.6x    frame=1238169 fps=4296 q=-1.0 size=23753984kB time=06:12:49.76 bitrate=8698.9kbits/s speed=77.6x    frame=1240615 fps=4297 q=-1.0 size=23797760kB time=06:13:30.50 bitrate=8699.1kbits/s speed=77.6x    frame=1243054 fps=4298 q=-1.0 size=23838464kB time=06:14:11.15 bitrate=8698.2kbits/s speed=77.6x    frame=1245648 fps=4299 q=-1.0 size=23879168kB time=06:14:54.37 bitrate=8696.3kbits/s speed=77.6x    frame=1249076 fps=4304 q=-1.0 size=23922944kB time=06:15:51.45 bitrate=8690.2kbits/s speed=77.7x    frame=1251997 fps=4306 q=-1.0 size=23961856kB time=06:16:40.09 bitrate=8685.6kbits/s speed=77.7x    frame=1254175 fps=4306 q=-1.0 size=24003328kB time=06:17:16.41 bitrate=8686.7kbits/s speed=77.7x    frame=1256199 fps=4306 q=-1.0 size=24043008kB time=06:17:50.13 bitrate=8688.1kbits/s speed=77.7x    frame=1258321 fps=4306 q=-1.0 size=24081152kB time=06:18:25.48 bitrate=8688.3kbits/s speed=77.7x    frame=1260468 fps=4306 q=-1.0 size=24121856kB time=06:19:01.23 bitrate=8689.3kbits/s speed=77.7x    frame=1262525 fps=4305 q=-1.0 size=24160768kB time=06:19:35.50 bitrate=8690.3kbits/s speed=77.7x    frame=1264662 fps=4305 q=-1.0 size=24199168kB time=06:20:11.14 bitrate=8690.5kbits/s speed=77.7x    frame=1266805 fps=4305 q=-1.0 size=24240384kB time=06:20:46.85 bitrate=8691.7kbits/s speed=77.6x    frame=1268705 fps=4304 q=-1.0 size=24276992kB time=06:21:18.51 bitrate=8692.7kbits/s speed=77.6x    frame=1272239 fps=4309 q=-1.0 size=24317184kB time=06:22:17.35 bitrate=8684.8kbits/s speed=77.7x    frame=1275198 fps=4312 q=-1.0 size=24359424kB time=06:23:06.68 bitrate=8681.2kbits/s speed=77.7x    frame=1277286 fps=4312 q=-1.0 size=24394240kB time=06:23:41.46 bitrate=8680.5kbits/s speed=77.7x    frame=1279531 fps=4312 q=-1.0 size=24433152kB time=06:24:18.84 bitrate=8680.2kbits/s speed=77.7x    frame=1281398 fps=4311 q=-1.0 size=24469504kB time=06:24:49.98 bitrate=8681.4kbits/s speed=77.7x    frame=1283394 fps=4310 q=-1.0 size=24504320kB time=06:25:23.21 bitrate=8681.3kbits/s speed=77.7x    frame=1285470 fps=4310 q=-1.0 size=24543488kB time=06:25:57.80 bitrate=8682.2kbits/s speed=77.6x    frame=1287393 fps=4309 q=-1.0 size=24578560kB time=06:26:29.84 bitrate=8682.6kbits/s speed=77.6x    frame=1289380 fps=4309 q=-1.0 size=24619520kB time=06:27:02.98 bitrate=8684.6kbits/s speed=77.6x    frame=1293265 fps=4314 q=-1.0 size=24659968kB time=06:28:07.71 bitrate=8674.7kbits/s speed=77.7x    frame=1295244 fps=4314 q=-1.0 size=24699392kB time=06:28:40.69 bitrate=8676.3kbits/s speed=77.7x    frame=1297336 fps=4314 q=-1.0 size=24741376kB time=06:29:15.53 bitrate=8678.1kbits/s speed=77.7x    frame=1299504 fps=4314 q=-1.0 size=24781824kB time=06:29:51.64 bitrate=8678.9kbits/s speed=77.6x    frame=1302833 fps=4318 q=-1.0 size=24817664kB time=06:30:47.11 bitrate=8670.8kbits/s speed=77.7x    frame=1308162 fps=4328 q=-1.0 size=24856576kB time=06:32:15.88 bitrate=8651.7kbits/s speed=77.9x    frame=1311504 fps=4332 q=-1.0 size=24893952kB time=06:33:11.54 bitrate=8644.3kbits/s speed=77.9x    frame=1314363 fps=4334 q=-1.0 size=24933632kB time=06:33:59.18 bitrate=8640.6kbits/s speed=  78x    frame=1317054 fps=4336 q=-1.0 size=24976128kB time=06:34:44.00 bitrate=8638.9kbits/s speed=  78x    frame=1319887 fps=4338 q=-1.0 size=25017344kB time=06:35:31.17 bitrate=8636.0kbits/s speed=  78x    frame=1322991 fps=4341 q=-1.0 size=25058304kB time=06:36:22.91 bitrate=8631.3kbits/s speed=  78x    frame=1325505 fps=4342 q=-1.0 size=25100032kB time=06:37:04.77 bitrate=8630.5kbits/s speed=  78x    frame=1328271 fps=4344 q=-1.0 size=25140736kB time=06:37:50.85 bitrate=8627.8kbits/s speed=78.1x    frame=1331405 fps=4347 q=-1.0 size=25182464kB time=06:38:43.10 bitrate=8623.2kbits/s speed=78.1x    frame=1333681 fps=4348 q=-1.0 size=25222400kB time=06:39:21.01 bitrate=8623.3kbits/s speed=78.1x    frame=1336053 fps=4348 q=-1.0 size=25262336kB time=06:40:00.51 bitrate=8622.7kbits/s speed=78.1x    frame=1338164 fps=4348 q=-1.0 size=25303296kB time=06:40:35.68 bitrate=8624.0kbits/s speed=78.1x    frame=1340788 fps=4350 q=-1.0 size=25341952kB time=06:41:19.37 bitrate=8621.5kbits/s speed=78.1x    frame=1343459 fps=4351 q=-1.0 size=25381120kB time=06:42:03.88 bitrate=8618.9kbits/s speed=78.1x    frame=1345693 fps=4351 q=-1.0 size=25422848kB time=06:42:41.09 bitrate=8619.8kbits/s speed=78.1x    frame=1347871 fps=4351 q=-1.0 size=25460224kB time=06:43:17.38 bitrate=8619.5kbits/s speed=78.1x    frame=1350069 fps=4351 q=-1.0 size=25502464kB time=06:43:53.98 bitrate=8620.8kbits/s speed=78.1x    frame=1353375 fps=4355 q=-1.0 size=25541632kB time=06:44:49.05 bitrate=8614.5kbits/s speed=78.2x    frame=1356194 fps=4357 q=-1.0 size=25581056kB time=06:45:35.99 bitrate=8611.1kbits/s speed=78.2x    frame=1358291 fps=4357 q=-1.0 size=25623808kB time=06:46:10.93 bitrate=8613.1kbits/s speed=78.2x    frame=1360254 fps=4356 q=-1.0 size=25664768kB time=06:46:43.64 bitrate=8615.3kbits/s speed=78.1x    frame=1362516 fps=4356 q=-1.0 size=25704192kB time=06:47:21.33 bitrate=8615.3kbits/s speed=78.1x    frame=1365284 fps=4358 q=-1.0 size=25746176kB time=06:48:07.46 bitrate=8613.1kbits/s speed=78.2x    frame=1367750 fps=4359 q=-1.0 size=25784832kB time=06:48:48.54 bitrate=8611.6kbits/s speed=78.2x    frame=1370201 fps=4360 q=-1.0 size=25827840kB time=06:49:29.35 bitrate=8611.6kbits/s speed=78.2x    frame=1372354 fps=4360 q=-1.0 size=25870080kB time=06:50:05.24 bitrate=8613.1kbits/s speed=78.2x    frame=1374310 fps=4359 q=-1.0 size=25907968kB time=06:50:37.82 bitrate=8614.3kbits/s speed=78.1x    frame=1376861 fps=4360 q=-1.0 size=25949440kB time=06:51:20.29 bitrate=8613.3kbits/s speed=78.2x    frame=1379355 fps=4361 q=-1.0 size=25990912kB time=06:52:01.88 bitrate=8612.5kbits/s speed=78.2x    frame=1381901 fps=4362 q=-1.0 size=26030336kB time=06:52:44.28 bitrate=8610.8kbits/s speed=78.2x    frame=1384319 fps=4363 q=-1.0 size=26071552kB time=06:53:24.56 bitrate=8610.4kbits/s speed=78.2x    frame=1386305 fps=4363 q=-1.0 size=26111744kB time=06:53:57.62 bitrate=8612.2kbits/s speed=78.2x    frame=1390351 fps=4368 q=-1.0 size=26152448kB time=06:55:05.04 bitrate=8602.3kbits/s speed=78.3x    frame=1392527 fps=4368 q=-1.0 size=26193920kB time=06:55:41.27 bitrate=8603.4kbits/s speed=78.2x    frame=1394399 fps=4367 q=-1.0 size=26232064kB time=06:56:12.48 bitrate=8605.2kbits/s speed=78.2x    frame=1396458 fps=4367 q=-1.0 size=26274304kB time=06:56:46.78 bitrate=8607.2kbits/s speed=78.2x    frame=1399843 fps=4371 q=-1.0 size=26317824kB time=06:57:43.19 bitrate=8602.1kbits/s speed=78.3x    frame=1402148 fps=4371 q=-1.0 size=26360832kB time=06:58:21.60 bitrate=8603.0kbits/s speed=78.3x    frame=1404504 fps=4372 q=-1.0 size=26404352kB time=06:59:00.84 bitrate=8603.7kbits/s speed=78.3x    frame=1406549 fps=4371 q=-1.0 size=26445568kB time=06:59:34.92 bitrate=8605.5kbits/s speed=78.2x    frame=1409524 fps=4374 q=-1.0 size=26488832kB time=07:00:24.47 bitrate=8602.6kbits/s speed=78.3x    frame=1411962 fps=4374 q=-1.0 size=26532096kB time=07:01:05.11 bitrate=8602.8kbits/s speed=78.3x    frame=1414081 fps=4374 q=-1.0 size=26574080kB time=07:01:40.38 bitrate=8604.4kbits/s speed=78.3x    frame=1417580 fps=4378 q=-1.0 size=26617600kB time=07:02:38.69 bitrate=8598.7kbits/s speed=78.3x    frame=1420109 fps=4379 q=-1.0 size=26662144kB time=07:03:20.83 bitrate=8598.8kbits/s speed=78.3x    frame=1422147 fps=4379 q=-1.0 size=26700288kB time=07:03:54.75 bitrate=8599.6kbits/s speed=78.3x    frame=1424697 fps=4380 q=-1.0 size=26745600kB time=07:04:37.25 bitrate=8599.8kbits/s speed=78.3x    frame=1427101 fps=4381 q=-1.0 size=26789376kB time=07:05:17.29 bitrate=8600.4kbits/s speed=78.3x    frame=1429553 fps=4381 q=-1.0 size=26832896kB time=07:05:58.14 bitrate=8600.6kbits/s speed=78.3x    frame=1431650 fps=4381 q=-1.0 size=26870784kB time=07:06:33.06 bitrate=8601.0kbits/s speed=78.3x    frame=1433616 fps=4380 q=-1.0 size=26907648kB time=07:07:05.83 bitrate=8601.8kbits/s speed=78.3x    frame=1436696 fps=4383 q=-1.0 size=26944000kB time=07:07:57.11 bitrate=8596.2kbits/s speed=78.3x    frame=1438732 fps=4383 q=-1.0 size=26983680kB time=07:08:31.05 bitrate=8597.5kbits/s speed=78.3x    frame=1440650 fps=4382 q=-1.0 size=27021824kB time=07:09:02.98 bitrate=8599.0kbits/s speed=78.3x    frame=1443759 fps=4385 q=-1.0 size=27060992kB time=07:09:54.78 bitrate=8594.1kbits/s speed=78.3x    frame=1446054 fps=4385 q=-1.0 size=27100160kB time=07:10:33.00 bitrate=8593.8kbits/s speed=78.3x    frame=1448227 fps=4385 q=-1.0 size=27137024kB time=07:11:09.22 bitrate=8593.5kbits/s speed=78.3x    frame=1450845 fps=4386 q=-1.0 size=27176704kB time=07:11:52.81 bitrate=8591.6kbits/s speed=78.3x    frame=1452949 fps=4386 q=-1.0 size=27216384kB time=07:12:27.89 bitrate=8592.5kbits/s speed=78.3x    frame=1455454 fps=4387 q=-1.0 size=27253760kB time=07:13:09.63 bitrate=8590.5kbits/s speed=78.3x    frame=1457557 fps=4386 q=-1.0 size=27294976kB time=07:13:44.67 bitrate=8591.9kbits/s speed=78.3x    frame=1459504 fps=4386 q=-1.0 size=27333376kB time=07:14:17.10 bitrate=8593.2kbits/s speed=78.3x    frame=1462020 fps=4387 q=-1.0 size=27374592kB time=07:14:59.01 bitrate=8592.4kbits/s speed=78.3x    frame=1464106 fps=4386 q=-1.0 size=27413504kB time=07:15:33.75 bitrate=8593.2kbits/s speed=78.3x    frame=1467510 fps=4390 q=-1.0 size=27450880kB time=07:16:30.44 bitrate=8586.2kbits/s speed=78.3x    frame=1470559 fps=4392 q=-1.0 size=27491072kB time=07:17:21.25 bitrate=8582.2kbits/s speed=78.4x    frame=1473176 fps=4394 q=-1.0 size=27533056kB time=07:18:04.83 bitrate=8581.0kbits/s speed=78.4x    frame=1476254 fps=4396 q=-1.0 size=27570432kB time=07:18:56.13 bitrate=8575.9kbits/s speed=78.4x    frame=1478858 fps=4398 q=-1.0 size=27613440kB time=07:19:39.49 bitrate=8575.2kbits/s speed=78.4x    frame=1481476 fps=4399 q=-1.0 size=27652096kB time=07:20:23.12 bitrate=8573.0kbits/s speed=78.5x    frame=1483914 fps=4400 q=-1.0 size=27691776kB time=07:21:03.71 bitrate=8572.2kbits/s speed=78.5x    frame=1486324 fps=4400 q=-1.0 size=27732992kB time=07:21:43.86 bitrate=8571.9kbits/s speed=78.5x    frame=1488362 fps=4400 q=-1.0 size=27770880kB time=07:22:17.81 bitrate=8572.6kbits/s speed=78.4x    frame=1490859 fps=4401 q=-1.0 size=27811584kB time=07:22:59.40 bitrate=8571.8kbits/s speed=78.5x    frame=1493066 fps=4401 q=-1.0 size=27853312kB time=07:23:36.17 bitrate=8572.8kbits/s speed=78.4x    frame=1495267 fps=4401 q=-1.0 size=27889664kB time=07:24:12.88 bitrate=8572.1kbits/s speed=78.4x    frame=1498110 fps=4402 q=-1.0 size=27930368kB time=07:25:00.21 bitrate=8569.4kbits/s speed=78.5x    frame=1500597 fps=4403 q=-1.0 size=27973120kB time=07:25:41.66 bitrate=8569.2kbits/s speed=78.5x    frame=1502675 fps=4403 q=-1.0 size=28011520kB time=07:26:16.26 bitrate=8569.9kbits/s speed=78.5x    frame=1504982 fps=4403 q=-1.0 size=28054016kB time=07:26:54.74 bitrate=8570.6kbits/s speed=78.5x    frame=1507216 fps=4403 q=-1.0 size=28093952kB time=07:27:31.94 bitrate=8570.9kbits/s speed=78.4x    frame=1510136 fps=4405 q=-1.0 size=28134656kB time=07:28:20.57 bitrate=8567.8kbits/s speed=78.5x    frame=1512363 fps=4405 q=-1.0 size=28176896kB time=07:28:57.69 bitrate=8568.9kbits/s speed=78.5x    frame=1514479 fps=4405 q=-1.0 size=28216064kB time=07:29:32.93 bitrate=8569.6kbits/s speed=78.5x    frame=1516638 fps=4405 q=-1.0 size=28257536kB time=07:30:08.91 bitrate=8570.7kbits/s speed=78.4x    frame=1518754 fps=4405 q=-1.0 size=28298240kB time=07:30:44.16 bitrate=8571.9kbits/s speed=78.4x    frame=1520623 fps=4404 q=-1.0 size=28335104kB time=07:31:15.26 bitrate=8573.2kbits/s speed=78.4x    frame=1522806 fps=4404 q=-1.0 size=28375552kB time=07:31:51.66 bitrate=8573.9kbits/s speed=78.4x    frame=1524778 fps=4403 q=-1.0 size=28413952kB time=07:32:24.49 bitrate=8575.1kbits/s speed=78.4x    frame=1526672 fps=4402 q=-1.0 size=28450560kB time=07:32:56.07 bitrate=8576.2kbits/s speed=78.4x    frame=1528816 fps=4402 q=-1.0 size=28490496kB time=07:33:31.78 bitrate=8576.9kbits/s speed=78.4x    frame=1530867 fps=4402 q=-1.0 size=28528128kB time=07:34:05.93 bitrate=8577.5kbits/s speed=78.3x    frame=1533031 fps=4401 q=-1.0 size=28568832kB time=07:34:42.01 bitrate=8578.4kbits/s speed=78.3x    frame=1535130 fps=4401 q=-1.0 size=28607744kB time=07:35:16.96 bitrate=8579.1kbits/s speed=78.3x    frame=1537159 fps=4401 q=-1.0 size=28644864kB time=07:35:50.79 bitrate=8579.6kbits/s speed=78.3x    frame=1539276 fps=4400 q=-1.0 size=28685312kB time=07:36:26.05 bitrate=8580.6kbits/s speed=78.3x    frame=1541531 fps=4401 q=-1.0 size=28727808kB time=07:37:03.61 bitrate=8581.6kbits/s speed=78.3x    frame=1543382 fps=4400 q=-1.0 size=28763136kB time=07:37:34.45 bitrate=8582.5kbits/s speed=78.3x    frame=1545560 fps=4400 q=-1.0 size=28805120kB time=07:38:10.74 bitrate=8583.7kbits/s speed=78.3x    frame=1547770 fps=4400 q=-1.0 size=28844032kB time=07:38:47.57 bitrate=8583.8kbits/s speed=78.2x    frame=1549889 fps=4399 q=-1.0 size=28883968kB time=07:39:22.86 bitrate=8584.6kbits/s speed=78.2x    frame=1552153 fps=4400 q=-1.0 size=28924672kB time=07:40:00.59 bitrate=8585.0kbits/s speed=78.2x    frame=1554239 fps=4399 q=-1.0 size=28964096kB time=07:40:35.35 bitrate=8585.9kbits/s speed=78.2x    frame=1556483 fps=4399 q=-1.0 size=29005824kB time=07:41:12.74 bitrate=8586.6kbits/s speed=78.2x    frame=1559860 fps=4403 q=-1.0 size=29047808kB time=07:42:08.97 bitrate=8581.6kbits/s speed=78.3x    frame=1562104 fps=4403 q=-1.0 size=29083904kB time=07:42:46.33 bitrate=8580.7kbits/s speed=78.3x    frame=1565416 fps=4406 q=-1.0 size=29125888kB time=07:43:41.53 bitrate=8576.1kbits/s speed=78.3x    frame=1567486 fps=4405 q=-1.0 size=29167872kB time=07:44:16.00 bitrate=8577.8kbits/s speed=78.3x    frame=1569503 fps=4405 q=-1.0 size=29206784kB time=07:44:49.60 bitrate=8578.9kbits/s speed=78.3x    frame=1571789 fps=4405 q=-1.0 size=29247488kB time=07:45:27.67 bitrate=8579.1kbits/s speed=78.3x    frame=1573612 fps=4404 q=-1.0 size=29285376kB time=07:45:58.02 bitrate=8580.9kbits/s speed=78.2x    frame=1575559 fps=4403 q=-1.0 size=29325824kB time=07:46:30.44 bitrate=8582.8kbits/s speed=78.2x    frame=1577579 fps=4403 q=-1.0 size=29367808kB time=07:47:04.07 bitrate=8584.8kbits/s speed=78.2x    frame=1579421 fps=4402 q=-1.0 size=29406208kB time=07:47:34.77 bitrate=8586.6kbits/s speed=78.2x    frame=1581395 fps=4401 q=-1.0 size=29447168kB time=07:48:07.63 bitrate=8588.5kbits/s speed=78.2x    frame=1583443 fps=4401 q=-1.0 size=29489664kB time=07:48:41.75 bitrate=8590.5kbits/s speed=78.2x    frame=1585432 fps=4400 q=-1.0 size=29531136kB time=07:49:14.84 bitrate=8592.4kbits/s speed=78.1x    frame=1587431 fps=4400 q=-1.0 size=29572608kB time=07:49:48.16 bitrate=8594.3kbits/s speed=78.1x    frame=1589365 fps=4399 q=-1.0 size=29612800kB time=07:50:20.37 bitrate=8596.2kbits/s speed=78.1x    frame=1591236 fps=4398 q=-1.0 size=29651712kB time=07:50:51.54 bitrate=8598.0kbits/s speed=78.1x    frame=1593281 fps=4398 q=-1.0 size=29694208kB time=07:51:25.58 bitrate=8600.0kbits/s speed=78.1x    frame=1595129 fps=4397 q=-1.0 size=29732352kB time=07:51:56.38 bitrate=8601.6kbits/s speed=  78x    frame=1597331 fps=4397 q=-1.0 size=29773568kB time=07:52:33.04 bitrate=8602.4kbits/s speed=  78x    frame=1599782 fps=4397 q=-1.0 size=29816320kB time=07:53:13.87 bitrate=8602.4kbits/s speed=  78x    frame=1601665 fps=4396 q=-1.0 size=29855488kB time=07:53:45.24 bitrate=8604.2kbits/s speed=  78x    frame=1603635 fps=4396 q=-1.0 size=29896448kB time=07:54:18.06 bitrate=8606.1kbits/s speed=  78x    frame=1605599 fps=4395 q=-1.0 size=29937152kB time=07:54:50.77 bitrate=8607.9kbits/s speed=  78x    frame=1607483 fps=4394 q=-1.0 size=29976320kB time=07:55:22.17 bitrate=8609.7kbits/s speed=  78x    frame=1609561 fps=4394 q=-1.0 size=30019584kB time=07:55:56.73 bitrate=8611.6kbits/s speed=  78x    frame=1611454 fps=4393 q=-1.0 size=30058752kB time=07:56:28.28 bitrate=8613.4kbits/s speed=77.9x    frame=1613400 fps=4392 q=-1.0 size=30099456kB time=07:57:00.68 bitrate=8615.3kbits/s speed=77.9x    frame=1615398 fps=4392 q=-1.0 size=30140672kB time=07:57:33.97 bitrate=8617.0kbits/s speed=77.9x    frame=1617487 fps=4392 q=-1.0 size=30179072kB time=07:58:08.76 bitrate=8617.6kbits/s speed=77.9x    frame=1619539 fps=4391 q=-1.0 size=30221312kB time=07:58:42.97 bitrate=8619.3kbits/s speed=77.9x    frame=1621930 fps=4392 q=-1.0 size=30263040kB time=07:59:22.79 bitrate=8619.3kbits/s speed=77.9x    frame=1623626 fps=4390 q=-1.0 size=30298112kB time=07:59:51.04 bitrate=8620.8kbits/s speed=77.9x    frame=1625478 fps=4389 q=-1.0 size=30336768kB time=08:00:21.89 bitrate=8622.6kbits/s speed=77.8x    frame=1627217 fps=4388 q=-1.0 size=30372864kB time=08:00:50.88 bitrate=8624.2kbits/s speed=77.8x    frame=1629017 fps=4387 q=-1.0 size=30410240kB time=08:01:20.85 bitrate=8625.8kbits/s speed=77.8x    frame=1630957 fps=4386 q=-1.0 size=30450688kB time=08:01:53.17 bitrate=8627.6kbits/s speed=77.8x    frame=1632851 fps=4386 q=-1.0 size=30489856kB time=08:02:24.71 bitrate=8629.3kbits/s speed=77.7x    frame=1635114 fps=4386 q=-1.0 size=30531584kB time=08:03:02.39 bitrate=8629.9kbits/s speed=77.7x    frame=1637345 fps=4386 q=-1.0 size=30576896kB time=08:03:39.54 bitrate=8631.6kbits/s speed=77.7x    frame=1639660 fps=4386 q=-1.0 size=30614528kB time=08:04:18.10 bitrate=8630.8kbits/s speed=77.7x    frame=1641727 fps=4386 q=-1.0 size=30657280kB time=08:04:52.53 bitrate=8632.6kbits/s speed=77.7x    frame=1643777 fps=4385 q=-1.0 size=30699776kB time=08:05:26.62 bitrate=8634.5kbits/s speed=77.7x    frame=1645629 fps=4385 q=-1.0 size=30738176kB time=08:05:57.50 bitrate=8636.1kbits/s speed=77.7x    frame=1647572 fps=4384 q=-1.0 size=30778624kB time=08:06:29.87 bitrate=8637.9kbits/s speed=77.7x    frame=1649508 fps=4383 q=-1.0 size=30819072kB time=08:07:02.13 bitrate=8639.7kbits/s speed=77.7x    frame=1651739 fps=4383 q=-1.0 size=30857728kB time=08:07:39.30 bitrate=8639.5kbits/s speed=77.6x    frame=1653942 fps=4383 q=-1.0 size=30903552kB time=08:08:15.97 bitrate=8641.5kbits/s speed=77.6x    frame=1656272 fps=4384 q=-1.0 size=30942464kB time=08:08:54.76 bitrate=8641.0kbits/s speed=77.6x    frame=1658214 fps=4383 q=-1.0 size=30982656kB time=08:09:27.10 bitrate=8642.7kbits/s speed=77.6x    frame=1660042 fps=4382 q=-1.0 size=31020032kB time=08:09:57.57 bitrate=8644.1kbits/s speed=77.6x    frame=1662047 fps=4382 q=-1.0 size=31056896kB time=08:10:30.95 bitrate=8644.6kbits/s speed=77.6x    frame=1664068 fps=4381 q=-1.0 size=31099136kB time=08:11:04.60 bitrate=8646.4kbits/s speed=77.6x    frame=1666238 fps=4381 q=-1.0 size=31135488kB time=08:11:40.74 bitrate=8645.9kbits/s speed=77.6x    frame=1668214 fps=4381 q=-1.0 size=31176448kB time=08:12:13.66 bitrate=8647.7kbits/s speed=77.6x    frame=1670197 fps=4380 q=-1.0 size=31217664kB time=08:12:46.69 bitrate=8649.4kbits/s speed=77.5x    frame=1672204 fps=4379 q=-1.0 size=31259392kB time=08:13:20.13 bitrate=8651.2kbits/s speed=77.5x    frame=1674211 fps=4379 q=-1.0 size=31301120kB time=08:13:53.55 bitrate=8653.0kbits/s speed=77.5x    frame=1676088 fps=4378 q=-1.0 size=31340032kB time=08:14:24.79 bitrate=8654.6kbits/s speed=77.5x    frame=1678040 fps=4378 q=-1.0 size=31380480kB time=08:14:57.32 bitrate=8656.3kbits/s speed=77.5x    frame=1680042 fps=4377 q=-1.0 size=31421952kB time=08:15:30.66 bitrate=8658.0kbits/s speed=77.5x    frame=1681779 fps=4376 q=-1.0 size=31458048kB time=08:15:59.60 bitrate=8659.5kbits/s speed=77.4x    frame=1683705 fps=4375 q=-1.0 size=31497984kB time=08:16:31.70 bitrate=8661.2kbits/s speed=77.4x    frame=1685689 fps=4375 q=-1.0 size=31539200kB time=08:17:04.75 bitrate=8662.9kbits/s speed=77.4x    frame=1687603 fps=4374 q=-1.0 size=31578880kB time=08:17:36.62 bitrate=8664.5kbits/s speed=77.4x    frame=1689567 fps=4373 q=-1.0 size=31619840kB time=08:18:09.37 bitrate=8666.3kbits/s speed=77.4x    frame=1691421 fps=4373 q=-1.0 size=31658240kB time=08:18:40.22 bitrate=8667.9kbits/s speed=77.3x    frame=1693318 fps=4372 q=-1.0 size=31697664kB time=08:19:11.85 bitrate=8669.5kbits/s speed=77.3x    frame=1695306 fps=4371 q=-1.0 size=31739136kB time=08:19:44.94 bitrate=8671.3kbits/s speed=77.3x    frame=1697160 fps=4370 q=-1.0 size=31777536kB time=08:20:15.84 bitrate=8672.8kbits/s speed=77.3x    frame=1699458 fps=4371 q=-1.0 size=31819008kB time=08:20:54.11 bitrate=8673.1kbits/s speed=77.3x    frame=1701914 fps=4371 q=-1.0 size=31861760kB time=08:21:35.05 bitrate=8672.9kbits/s speed=77.3x    frame=1703667 fps=4370 q=-1.0 size=31898368kB time=08:22:04.23 bitrate=8674.5kbits/s speed=77.3x    frame=1705684 fps=4370 q=-1.0 size=31940352kB time=08:22:37.85 bitrate=8676.2kbits/s speed=77.3x    frame=1707647 fps=4369 q=-1.0 size=31980544kB time=08:23:10.56 bitrate=8677.7kbits/s speed=77.2x    frame=1709435 fps=4368 q=-1.0 size=32018176kB time=08:23:40.35 bitrate=8679.3kbits/s speed=77.2x    frame=1711421 fps=4368 q=-1.0 size=32059136kB time=08:24:13.41 bitrate=8681.0kbits/s speed=77.2x    frame=1713327 fps=4367 q=-1.0 size=32098560kB time=08:24:45.15 bitrate=8682.5kbits/s speed=77.2x    frame=1715151 fps=4366 q=-1.0 size=32136704kB time=08:25:15.53 bitrate=8684.1kbits/s speed=77.2x    frame=1717144 fps=4366 q=-1.0 size=32177920kB time=08:25:48.76 bitrate=8685.7kbits/s speed=77.2x    frame=1718971 fps=4365 q=-1.0 size=32216064kB time=08:26:19.18 bitrate=8687.3kbits/s speed=77.1x    frame=1720843 fps=4364 q=-1.0 size=32254976kB time=08:26:50.32 bitrate=8688.9kbits/s speed=77.1x    frame=1723318 fps=4365 q=-1.0 size=32296192kB time=08:27:31.59 bitrate=8688.2kbits/s speed=77.1x    frame=1725388 fps=4364 q=-1.0 size=32335616kB time=08:28:06.06 bitrate=8689.0kbits/s speed=77.1x    frame=1727843 fps=4365 q=-1.0 size=32377344kB time=08:28:46.94 bitrate=8688.6kbits/s speed=77.1x    frame=1729793 fps=4364 q=-1.0 size=32417792kB time=08:29:19.43 bitrate=8690.2kbits/s speed=77.1x    frame=1731604 fps=4363 q=-1.0 size=32455424kB time=08:29:49.58 bitrate=8691.7kbits/s speed=77.1x    frame=1733524 fps=4363 q=-1.0 size=32495360kB time=08:30:21.59 bitrate=8693.3kbits/s speed=77.1x    frame=1735363 fps=4362 q=-1.0 size=32533504kB time=08:30:52.23 bitrate=8694.8kbits/s speed=  77x    frame=1737258 fps=4361 q=-1.0 size=32572928kB time=08:31:23.77 bitrate=8696.4kbits/s speed=  77x    frame=1739217 fps=4361 q=-1.0 size=32613632kB time=08:31:56.40 bitrate=8698.0kbits/s speed=  77x    frame=1740984 fps=4360 q=-1.0 size=32650496kB time=08:32:25.83 bitrate=8699.5kbits/s speed=  77x    frame=1742923 fps=4359 q=-1.0 size=32690688kB time=08:32:58.09 bitrate=8701.1kbits/s speed=  77x    frame=1744916 fps=4359 q=-1.0 size=32732160kB time=08:33:31.32 bitrate=8702.7kbits/s speed=  77x    frame=1746959 fps=4358 q=-1.0 size=32769024kB time=08:34:05.34 bitrate=8702.9kbits/s speed=  77x    frame=1749258 fps=4359 q=-1.0 size=32810496kB time=08:34:43.64 bitrate=8703.1kbits/s speed=  77x    frame=1751129 fps=4358 q=-1.0 size=32848896kB time=08:35:14.81 bitrate=8704.5kbits/s speed=76.9x    frame=1753028 fps=4357 q=-1.0 size=32888320kB time=08:35:46.45 bitrate=8706.0kbits/s speed=76.9x    frame=1755018 fps=4357 q=-1.0 size=32929536kB time=08:36:19.56 bitrate=8707.6kbits/s speed=76.9x    frame=1756812 fps=4356 q=-1.0 size=32967168kB time=08:36:49.47 bitrate=8709.2kbits/s speed=76.9x    frame=1758782 fps=4355 q=-1.0 size=33007872kB time=08:37:22.30 bitrate=8710.7kbits/s speed=76.9x    frame=1760803 fps=4355 q=-1.0 size=33050112kB time=08:37:55.97 bitrate=8712.4kbits/s speed=76.9x    frame=1762581 fps=4354 q=-1.0 size=33086720kB time=08:38:25.57 bitrate=8713.8kbits/s speed=76.8x    frame=1764598 fps=4353 q=-1.0 size=33128960kB time=08:38:59.16 bitrate=8715.5kbits/s speed=76.8x    frame=1766525 fps=4353 q=-1.0 size=33168640kB time=08:39:31.25 bitrate=8716.9kbits/s speed=76.8x    frame=1768362 fps=4352 q=-1.0 size=33207040kB time=08:40:01.83 bitrate=8718.5kbits/s speed=76.8x    frame=1770372 fps=4351 q=-1.0 size=33249024kB time=08:40:35.32 bitrate=8720.1kbits/s speed=76.8x    frame=1772235 fps=4351 q=-1.0 size=33287424kB time=08:41:06.34 bitrate=8721.5kbits/s speed=76.8x    frame=1774141 fps=4350 q=-1.0 size=33327104kB time=08:41:38.08 bitrate=8723.1kbits/s speed=76.7x    frame=1776198 fps=4350 q=-1.0 size=33369856kB time=08:42:12.33 bitrate=8724.7kbits/s speed=76.7x    frame=1778132 fps=4349 q=-1.0 size=33410048kB time=08:42:44.55 bitrate=8726.3kbits/s speed=76.7x    frame=1780099 fps=4349 q=-1.0 size=33451008kB time=08:43:17.33 bitrate=8727.8kbits/s speed=76.7x    frame=1782459 fps=4349 q=-1.0 size=33494272kB time=08:43:56.63 bitrate=8728.2kbits/s speed=76.7x    frame=1784552 fps=4349 q=-1.0 size=33531648kB time=08:44:31.49 bitrate=8728.3kbits/s speed=76.7x    frame=1786374 fps=4348 q=-1.0 size=33569536kB time=08:45:01.78 bitrate=8729.7kbits/s speed=76.7x    frame=1788223 fps=4347 q=-1.0 size=33607680kB time=08:45:32.62 bitrate=8731.1kbits/s speed=76.7x    frame=1790015 fps=4346 q=-1.0 size=33645056kB time=08:46:02.47 bitrate=8732.5kbits/s speed=76.6x    frame=1791983 fps=4346 q=-1.0 size=33686016kB time=08:46:35.22 bitrate=8734.1kbits/s speed=76.6x    frame=1793790 fps=4345 q=-1.0 size=33723904kB time=08:47:05.33 bitrate=8735.6kbits/s speed=76.6x    frame=1795724 fps=4344 q=-1.0 size=33763840kB time=08:47:37.56 bitrate=8737.0kbits/s speed=76.6x    frame=1797734 fps=4344 q=-1.0 size=33805568kB time=08:48:11.03 bitrate=8738.6kbits/s speed=76.6x    frame=1799517 fps=4343 q=-1.0 size=33842944kB time=08:48:40.72 bitrate=8740.1kbits/s speed=76.6x    frame=1801512 fps=4343 q=-1.0 size=33883904kB time=08:49:13.97 bitrate=8741.5kbits/s speed=76.5x    frame=1804007 fps=4343 q=-1.0 size=33926912kB time=08:49:55.50 bitrate=8741.1kbits/s speed=76.6x    frame=1805978 fps=4343 q=-1.0 size=33965056kB time=08:50:28.35 bitrate=8741.9kbits/s speed=76.5x    frame=1808614 fps=4344 q=-1.0 size=34010112kB time=08:51:12.25 bitrate=8741.5kbits/s speed=76.6x    frame=1810516 fps=4343 q=-1.0 size=34049536kB time=08:51:43.94 bitrate=8742.9kbits/s speed=76.5x    frame=1812436 fps=4343 q=-1.0 size=34089472kB time=08:52:15.93 bitrate=8744.4kbits/s speed=76.5x    frame=1814466 fps=4342 q=-1.0 size=34131712kB time=08:52:49.71 bitrate=8746.0kbits/s speed=76.5x    frame=1816318 fps=4342 q=-1.0 size=34170368kB time=08:53:20.54 bitrate=8747.5kbits/s speed=76.5x    frame=1818369 fps=4341 q=-1.0 size=34212864kB time=08:53:54.68 bitrate=8749.0kbits/s speed=76.5x    frame=1820364 fps=4341 q=-1.0 size=34254336kB time=08:54:27.94 bitrate=8750.5kbits/s speed=76.5x    frame=1822154 fps=4340 q=-1.0 size=34291456kB time=08:54:57.73 bitrate=8751.9kbits/s speed=76.4x    frame=1824234 fps=4340 q=-1.0 size=34334976kB time=08:55:32.38 bitrate=8753.5kbits/s speed=76.4x    frame=1826209 fps=4339 q=-1.0 size=34375936kB time=08:56:05.28 bitrate=8755.0kbits/s speed=76.4x    frame=1828093 fps=4339 q=-1.0 size=34414592kB time=08:56:36.67 bitrate=8756.3kbits/s speed=76.4x    frame=1830124 fps=4338 q=-1.0 size=34456832kB time=08:57:10.52 bitrate=8757.9kbits/s speed=76.4x    frame=1831993 fps=4338 q=-1.0 size=34495744kB time=08:57:41.66 bitrate=8759.3kbits/s speed=76.4x    frame=1834202 fps=4338 q=-1.0 size=34536448kB time=08:58:18.45 bitrate=8759.6kbits/s speed=76.4x    frame=1836518 fps=4338 q=-1.0 size=34583040kB time=08:58:56.99 bitrate=8761.0kbits/s speed=76.4x    frame=1838828 fps=4338 q=-1.0 size=34624768kB time=08:59:35.50 bitrate=8761.1kbits/s speed=76.4x    frame=1840852 fps=4338 q=-1.0 size=34667008kB time=09:00:09.20 bitrate=8762.7kbits/s speed=76.4x    frame=1842840 fps=4338 q=-1.0 size=34708224kB time=09:00:42.30 bitrate=8764.2kbits/s speed=76.4x    frame=1844708 fps=4337 q=-1.0 size=34747136kB time=09:01:13.46 bitrate=8765.6kbits/s speed=76.3x    frame=1846736 fps=4336 q=-1.0 size=34789120kB time=09:01:47.23 bitrate=8767.0kbits/s speed=76.3x    frame=1848692 fps=4336 q=-1.0 size=34829824kB time=09:02:19.81 bitrate=8768.5kbits/s speed=76.3x    frame=1850589 fps=4335 q=-1.0 size=34869248kB time=09:02:51.39 bitrate=8769.9kbits/s speed=76.3x    frame=1852691 fps=4335 q=-1.0 size=34912768kB time=09:03:26.42 bitrate=8771.4kbits/s speed=76.3x    frame=1854627 fps=4335 q=-1.0 size=34953216kB time=09:03:58.67 bitrate=8772.9kbits/s speed=76.3x    frame=1856639 fps=4334 q=-1.0 size=34995200kB time=09:04:32.15 bitrate=8774.5kbits/s speed=76.3x    frame=1858710 fps=4334 q=-1.0 size=35037952kB time=09:05:06.66 bitrate=8775.9kbits/s speed=76.3x    frame=1860788 fps=4334 q=-1.0 size=35081216kB time=09:05:41.26 bitrate=8777.5kbits/s speed=76.3x    frame=1862852 fps=4334 q=-1.0 size=35124224kB time=09:06:15.67 bitrate=8779.0kbits/s speed=76.2x    frame=1864888 fps=4333 q=-1.0 size=35166464kB time=09:06:49.57 bitrate=8780.5kbits/s speed=76.2x    frame=1866916 fps=4333 q=-1.0 size=35208448kB time=09:07:23.36 bitrate=8781.9kbits/s speed=76.2x    frame=1869243 fps=4333 q=-1.0 size=35252224kB time=09:08:02.12 bitrate=8782.5kbits/s speed=76.2x    frame=1871268 fps=4333 q=-1.0 size=35294464kB time=09:08:35.82 bitrate=8784.0kbits/s speed=76.2x    frame=1873702 fps=4334 q=-1.0 size=35337728kB time=09:09:16.36 bitrate=8783.9kbits/s speed=76.2x    frame=1875764 fps=4333 q=-1.0 size=35380480kB time=09:09:50.69 bitrate=8785.4kbits/s speed=76.2x    frame=1877831 fps=4333 q=-1.0 size=35423488kB time=09:10:25.12 bitrate=8786.9kbits/s speed=76.2x    frame=1879861 fps=4333 q=-1.0 size=35465728kB time=09:10:58.95 bitrate=8788.4kbits/s speed=76.2x    frame=1882009 fps=4333 q=-1.0 size=35510272kB time=09:11:34.72 bitrate=8789.9kbits/s speed=76.2x    frame=1883859 fps=4332 q=-1.0 size=35548672kB time=09:12:05.53 bitrate=8791.2kbits/s speed=76.2x    frame=1885936 fps=4332 q=-1.0 size=35591936kB time=09:12:40.15 bitrate=8792.8kbits/s speed=76.2x    frame=1887975 fps=4332 q=-1.0 size=35634176kB time=09:13:14.09 bitrate=8794.2kbits/s speed=76.2x    frame=1890141 fps=4332 q=-1.0 size=35679232kB time=09:13:50.18 bitrate=8795.7kbits/s speed=76.2x    frame=1892487 fps=4332 q=-1.0 size=35721984kB time=09:14:29.23 bitrate=8796.0kbits/s speed=76.2x    frame=1894877 fps=4332 q=-1.0 size=35763968kB time=09:15:09.03 bitrate=8795.8kbits/s speed=76.2x    frame=1896793 fps=4332 q=-1.0 size=35803904kB time=09:15:40.93 bitrate=8797.2kbits/s speed=76.1x    frame=1898831 fps=4332 q=-1.0 size=35846144kB time=09:16:14.86 bitrate=8798.6kbits/s speed=76.1x    frame=1900716 fps=4331 q=-1.0 size=35885312kB time=09:16:46.26 bitrate=8799.9kbits/s speed=76.1x    frame=1902767 fps=4331 q=-1.0 size=35928064kB time=09:17:20.41 bitrate=8801.4kbits/s speed=76.1x    frame=1904769 fps=4330 q=-1.0 size=35969536kB time=09:17:53.72 bitrate=8802.8kbits/s speed=76.1x    frame=1908112 fps=4333 q=-1.0 size=36009728kB time=09:18:49.40 bitrate=8798.0kbits/s speed=76.1x    frame=1910759 fps=4337 q=-1.0 Lsize=36029087kB time=09:19:33.48 bitrate=8791.2kbits/s speed=76.2x    
video:35164904kB audio:798852kB subtitle:0kB other streams:0kB global headers:0kB muxing overhead: 0.181657%
